<svg xmlns="http://www.w3.org/2000/svg" viewBox="0 0 120 120"><defs><style>.cls-1{fill:#fff;}.cls-2{fill:#005ea9;}.cls-3{fill:#def1fc;}.cls-4{fill:#4d7ab7;}.cls-5{fill:#5fb8e8;}.cls-6{fill:#95b1db;}.cls-7{fill:#009fdc;}.cls-8{fill:#0099d8;}.cls-9{fill:#0063ae;}.cls-10{fill:#1fbbeb;}.cls-11{fill:#008dcf;}.cls-12{fill:#006cb5;}.cls-13{fill:#00a5e2;}.cls-14{fill:#00b1eb;}.cls-15{fill:#dbf0fb;}.cls-16{fill:#0094d5;}.cls-17{fill:#00aee9;}.cls-18{fill:#00abe7;}.cls-19{fill:#00b5e9;}.cls-20{fill:#00b2eb;}.cls-21{fill:#00a8e4;}.cls-22{fill:#006fb7;}.cls-23{fill:#00a2df;}.cls-24{fill:#00afea;}.cls-25{fill:#e6f4fd;}.cls-26{fill:#00b0e8;}.cls-27{fill:#d3ecfa;}.cls-28{fill:#00b5eb;}.cls-29{fill:#20bcee;}.cls-30{fill:#009cdb;}.cls-31{fill:#cfebfa;}.cls-32{fill:#0091d3;}.cls-33{fill:#c5e7f9;}.cls-34{fill:#89d1f5;}.cls-35{fill:#00a6e3;}.cls-36{fill:#acddf8;}.cls-37{fill:#0085c9;}.cls-38{fill:#b4e0f9;}.cls-39{fill:#97d6f6;}.cls-40{fill:#00b4ec;}.cls-41{fill:#c4e6f9;}.cls-42{fill:#60c6f0;}.cls-43{fill:#00b8ea;}.cls-44{fill:#00b3eb;}.cls-45{fill:#62c6f0;}.cls-46{fill:#8ad2f5;}.cls-47{fill:#0098d8;}.cls-48{fill:#b2e0f7;}.cls-49{fill:#71caf2;}.cls-50{fill:#80cff5;}.cls-51{fill:#8dd2f2;}.cls-52{fill:#8ed3f2;}.cls-53{fill:#00ace7;}.cls-54{fill:#0089cc;}.cls-55{fill:#82cff2;}.cls-56{fill:#0086ca;}.cls-57{fill:#0095d6;}.cls-58{fill:#54c3f0;}.cls-59{fill:#b9e2f9;}.cls-60{fill:#00b7ed;}.cls-61{fill:#00b8e9;}.cls-62{fill:#37beef;}.cls-63{fill:#11bbeb;}.cls-64{fill:#009cda;}.cls-65{fill:#1ebcee;}.cls-66{fill:#00a6e2;}.cls-67{fill:#97d6f3;}.cls-68{fill:#b9e2f8;}.cls-69{fill:#6ec9f0;}.cls-70{fill:#0082c7;}.cls-71{fill:#37beec;}.cls-72{fill:#7bcdf4;}.cls-73{fill:#a2daf5;}.cls-74{fill:#009bdb;}.cls-75{fill:#a2d8f7;}.cls-76{fill:#00a1df;}.cls-77{fill:#6bc8f2;}.cls-78{fill:#4ac1ef;}.cls-79{fill:#9ad7f4;}.cls-80{fill:#00baea;}.cls-81{fill:#a3daf5;}.cls-82{fill:#acddf6;}.cls-83{fill:#4ac1ec;}.cls-84{fill:#66c7f0;}.cls-85{fill:#a7dbf7;}.cls-86{fill:#c0e4fa;}.cls-87{fill:#92d4f5;}.cls-88{fill:#0095d5;}.cls-89{fill:#008acd;}.cls-90{fill:#00b9ec;}.cls-91{fill:#c8e7f9;}.cls-92{fill:#90d3f2;}.cls-93{fill:#def1fb;}.cls-94{fill:#91d4f5;}.cls-95{fill:#b3dff9;}.cls-96{fill:#9cd8f6;}.cls-97{fill:#6fcaf0;}.cls-98{fill:#0062ad;}.cls-99{fill:#5dc5ee;}.cls-100{fill:#d9eefc;}.cls-101{fill:#79ccf1;}.cls-102{fill:#79ccf0;}.cls-103{fill:#96d6f6;}.cls-104{fill:#d2ebfb;}.cls-105{fill:#bfe5f9;}.cls-106{fill:#49c1ef;}.cls-107{fill:#0078bf;}.cls-108{fill:#00b7eb;}.cls-109{fill:#b2dff7;}.cls-110{fill:#bbe3fa;}.cls-111{fill:#bfe4fa;}.cls-112{fill:#80cef1;}.cls-113{fill:#38bfef;}.cls-114{fill:#00afe9;}.cls-115{fill:#a1d8f7;}.cls-116{fill:#81cff1;}.cls-117{fill:#49c1ed;}.cls-118{fill:#78ccf0;}.cls-119{fill:#2ebded;}.cls-120{fill:#5ec5ee;}.cls-121{fill:#009ada;}.cls-122{fill:#70caf0;}.cls-123{fill:#53c3f0;}.cls-124{fill:#5bc5ee;}.cls-125{fill:#54c3ed;}.cls-126{fill:#007ec4;}.cls-127{fill:#007fc4;}.cls-128{fill:#009edd;}.cls-129{fill:#03baed;}.cls-130{fill:#d8eefc;}.cls-131{fill:#00b6ec;}.cls-132{fill:#67c8f0;}.cls-133{fill:#86d0f3;}.cls-134{fill:#addef6;}.cls-135{fill:#9bd7f4;}.cls-136{fill:#00b4ea;}.cls-137{fill:#0074bb;}.cls-138{fill:#00a9e5;}.cls-139{fill:#00b5ec;}.cls-140{fill:#00b4eb;}.cls-141{fill:#0dbbed;}.cls-142{fill:#3bbfef;}.cls-143{fill:#0064ae;}.cls-144{fill:#00569c;}.cls-145{fill:#009edc;}.cls-146{fill:#0083c8;}.cls-147{fill:#007ac1;}.cls-148{fill:#0072ba;}.cls-149{fill:#006eb6;}.cls-150{fill:#0068b2;}.cls-151{fill:#0076bd;}.cls-152{fill:#007abe;}.cls-153{fill:#006bb2;}.cls-154{fill:#005a9f;}.cls-155{fill:#0066ac;}.cls-156{fill:#005fa5;}.cls-157{fill:#0073b7;}.cls-158{fill:#0061a8;}.cls-159{fill:#006eb5;}.cls-160{fill:#0075b9;}.cls-161{fill:#0063aa;}.cls-162{fill:#007dc1;}.cls-163{fill:#0075bc;}.cls-164{fill:#005ba0;}.cls-165{fill:#0079c0;}.cls-166{fill:#008bce;}.cls-167{fill:#00589e;}.cls-168{fill:#009ddb;}.cls-169{fill:#009bda;}.cls-170{fill:#006cb2;}.cls-171{fill:#006db4;}.cls-172{fill:#08c;}.cls-173{fill:#00aae6;}.cls-174{fill:#00abe6;}.cls-175{fill:#00a0df;}.cls-176{fill:#00a4e1;}.cls-177{fill:#059;}.cls-178{fill:#62c6ed;}.cls-179{fill:#76cbef;}.cls-180{fill:#46c0ef;}.cls-181{fill:#5cc5ee;}.cls-182{fill:#52c3f0;}.cls-183{fill:#00b3ea;}.cls-184{fill:#007cc2;}.cls-185{fill:#95d5f6;}.cls-186{fill:#008ed0;}.cls-187{fill:#87cff4;}.cls-188{fill:#0097d7;}.cls-189{fill:#75c7f0;}.cls-190{fill:#63c2ef;}.cls-191{fill:#7fcef4;}.cls-192{fill:#2dbaeb;}.cls-193{fill:#17b8eb;}.cls-194{fill:#008ccf;}.cls-195{fill:#0090d2;}.cls-196{fill:#009ddc;}.cls-197{fill:#0081c6;}.cls-198{fill:#4ebeec;}.cls-199{fill:#52beeb;}.cls-200{fill:#0089cd;}.cls-201{fill:#0060a5;}.cls-202{fill:#2ebaeb;}.cls-203{fill:#19b8eb;}.cls-204{fill:#0096d6;}.cls-205{fill:#007ab5;}.cls-206{fill:#53c3ed;}.cls-207{fill:#00a0de;}.cls-208{fill:#00b0ea;}.cls-209{fill:#007ec3;}.cls-210{fill:#005ba1;}.cls-211{fill:#005da4;}.cls-212{fill:#0071b3;}.cls-213{fill:#0067ae;}.cls-214{fill:#0064aa;}.cls-215{fill:#0081c7;}.cls-216{fill:#006bb1;}.cls-217{fill:#0085ca;}.cls-218{fill:#0080c5;}.cls-219{fill:#007bbf;}.cls-220{fill:#0078bc;}.cls-221{fill:#0073bb;}.cls-222{fill:#0073b8;}.cls-223{fill:#00b8eb;}.cls-224{fill:#68c7f1;}.cls-225{fill:#5cc3ef;}.cls-226{fill:#005591;}.cls-227{fill:#005d9b;}.cls-228{fill:#005995;}.cls-229{fill:#005b98;}.cls-230{fill:#00528c;}.cls-231{fill:#74cbf0;}.cls-232{fill:#0071b9;}.cls-233{fill:#0065ac;}.cls-234{fill:#00609e;}.cls-235{fill:#0068ae;}.cls-236{fill:#0074b6;}.cls-237{fill:#0071b2;}.cls-238{fill:#006eaf;}.cls-239{fill:#006cad;}.cls-240{fill:#0067a7;}.cls-241{fill:#006aaa;}.cls-242{fill:#0076ba;}.cls-243{fill:#0063a2;}.cls-244{fill:#45c0ec;}.cls-245{fill:#0073ba;}.cls-246{fill:#07b;}.cls-247{fill:#3880c2;}.cls-248{fill:#3c81c3;}.cls-249{fill:#191919;}.cls-250{fill:none;}</style></defs><title>Asset 1</title><g id="Layer_2" data-name="Layer 2"><g id="Layer_1-2" data-name="Layer 1"><g id="t6EHp0.tif"><path class="cls-1" d="M4.56,51.34c-.27.06-.17-.15-.17-.25q0-22,0-43.91c0-.36.07-.5.43-.43a1.93,1.93,0,0,0,.34,0q55.07,0,110.12,0c.63,0,.78.14.78.78q0,21.57,0,43.15c0,.58-.12.69-.7.69q-49.74,0-99.47,0c-.05-.24.14-.28.3-.34a16.72,16.72,0,0,0,8.71-3.09,15.66,15.66,0,0,0,4.68-6.4,17.31,17.31,0,0,0,.85-2.35c.2-.72.43-1.44.67-2.16a7.17,7.17,0,0,0,.35-1.2c.24-.68.46-1.36.67-2,.3-1.06.67-2.11,1-3.17.09-.23.17-.47.24-.7s.24-.69.34-1c.18-.72.45-1.4.63-2.12a4.07,4.07,0,0,1,.39-.88,3,3,0,0,1,.2-.29c.66-.82,1.3-1.66,1.94-2.5a9.41,9.41,0,0,0,.6-.81,9.34,9.34,0,0,0,.83-1.05,12.24,12.24,0,0,1,1.16-1.34,7.12,7.12,0,0,1,.54-.69,11,11,0,0,0,.82-.85,7,7,0,0,1,.54-.68c.34-.33.68-.67,1-1a2.31,2.31,0,0,1,.62-.5.4.4,0,0,1,.35,0,.65.65,0,0,1,.15.18,4.49,4.49,0,0,1,.36,1c.14.55.34,1.08.46,1.63a1.05,1.05,0,0,1,.06.24c.08.41.26.79.35,1.2.26,1,.54,2.07.75,3.12,0,.12.06.25.08.37.07.37.17.73.27,1.09s.17.67.24,1c.49,2.22,1.11,4.42,1.64,6.63A10.31,10.31,0,0,0,48,33.91c.14.62.35,1.22.51,1.82s.3,1,.47,1.41.35,1.08.53,1.62a6.68,6.68,0,0,0,.31.89c.17.39.29.81.49,1.18s.23.57.35.86c.2.45.43.89.66,1.33A11.51,11.51,0,0,0,52,44.2a12,12,0,0,0,.83,1.31,5.73,5.73,0,0,0,.69.87,6.39,6.39,0,0,0,1.65,1.67,6.36,6.36,0,0,0,1.49,1,7.82,7.82,0,0,0,3.91.91c.38,0,.76,0,1.14,0a3.57,3.57,0,0,1,.46,0c2.14,0,4.28,0,6.42,0q1.45,0,2.91,0c2.17,0,4.34,0,6.51,0,.73,0,1.46,0,2.2,0s1.27,0,1.91,0c2.76.15,5-1.06,7-2.74.39-.21.6-.64,1-.85a6.67,6.67,0,0,0,1.29-1.14,6.6,6.6,0,0,0,.69-.71,6.31,6.31,0,0,1,.86-1,3,3,0,0,0,.54-.68,13.74,13.74,0,0,0,1.31-1.63,6.43,6.43,0,0,0,.69-.87c.3-.34.55-.71.82-1.07.49-.72,1-1.4,1.5-2.14.19-.27.37-.55.55-.84.32-.46.63-.92.94-1.39l.56-.84c.29-.42.58-.85.84-1.3.16-.29.35-.57.53-.86s.42-.7.65-1a9.05,9.05,0,0,0,.7-1.15c.32-.43.51-.93.81-1.38s.56-.89.84-1.34.45-.77.69-1.15.36-.57.51-.86a11.23,11.23,0,0,0,.67-1.16,9.67,9.67,0,0,1,.5-.89,7.68,7.68,0,0,0,.69-1.14c.1-.2.22-.39.34-.59a8.21,8.21,0,0,1,1-1.82,5.14,5.14,0,0,0,.7-1.14c.22-.4.5-.76.68-1.18s.31-.61.5-.9c.32-.47.51-1,.82-1.49a8.33,8.33,0,0,1,.67-1.16,4,4,0,0,0,.23-.39c.26-.5.52-1,.82-1.49s.46-.81.69-1.22c.53-.93,1-1.87,1.55-2.81.08-.66-.44-.39-.68-.39-1.57,0-3.14,0-4.71,0-.4,0-.8,0-1.21,0-3.15,0-6.3,0-9.46,0-3.89.14-7.48,1.09-10.49,3.72a5.43,5.43,0,0,0-1.31,1.35,13.09,13.09,0,0,0-1.34,1.88,21,21,0,0,0-1.33,2.74c-.11.29-.2.59-.33.87s-.13.36-.19.54c-.11.38-.18.76-.32,1.13-.07.19-.12.38-.18.56a11.9,11.9,0,0,0-.49,1.61c-.1.31-.21.61-.3.92a7.27,7.27,0,0,0-.22.8c-.1.3-.2.59-.29.9s-.25.74-.38,1.12l-.18.55A9.1,9.1,0,0,0,81.54,27a6.26,6.26,0,0,0-.26.9,2.14,2.14,0,0,1-.09.34,13.08,13.08,0,0,0-.45,1.47c-.06.2-.14.38-.21.56-.14.33-.24.67-.35,1a9.4,9.4,0,0,0-.33,1.15l-.33,1a7.6,7.6,0,0,0-.34,1.15c-.14.42-.27.84-.44,1.25a5.26,5.26,0,0,0-.25.66c-.16.45-.3.9-.45,1.35-.11.29-.27.57-.38.87s-.31.9-.5,1.33c-.21.7-.55,1.34-.82,2a.7.7,0,0,1-.16.19.3.3,0,0,1-.31-.17,10,10,0,0,1-.43-1.15c-.14-.47-.24-.95-.42-1.41-.07-.28-.13-.56-.21-.84-.09-.48-.29-.94-.39-1.42,0-.24-.13-.47-.17-.72s-.16-.63-.25-.94-.13-.72-.22-1.07-.12-.47-.17-.7-.1-.39-.15-.58-.17-.63-.21-.95-.19-.78-.28-1.17a1.05,1.05,0,0,1-.06-.24c-.09-.4-.21-.8-.3-1.2s-.24-1.07-.37-1.61-.23-.9-.34-1.36c-.15-.79-.45-1.55-.62-2.33A8.11,8.11,0,0,0,71,23.34a5.6,5.6,0,0,0-.19-.81,9.24,9.24,0,0,0-.29-.89c-.08-.26-.16-.51-.25-.77s-.15-.5-.24-.74l-.17-.53c-.06-.17-.11-.34-.18-.51a6.56,6.56,0,0,0-.23-.62c-.1-.23-.18-.48-.29-.72s-.24-.63-.38-.94-.35-.68-.48-1A4.83,4.83,0,0,0,67.9,15a9,9,0,0,1-.5-.85,2.34,2.34,0,0,0-.46-.71c-.17-.23-.33-.47-.48-.71a2,2,0,0,0-.38-.64c-.37-.35-.62-.82-1-1.17a9.5,9.5,0,0,0-1.89-1.51,7.94,7.94,0,0,0-1.72-.87,7.07,7.07,0,0,0-2.64-.46c-8.1-.08-16.2,0-24.3,0L34.2,8a15,15,0,0,0-6,2.39,33.72,33.72,0,0,0-4,3.18,51,51,0,0,0-5.06,5.84,14,14,0,0,0-1,1.39c-.22.34-.5.65-.71,1a17.06,17.06,0,0,0-1,1.51c-.38.63-.8,1.23-1.16,1.86-.25.39-.46.79-.7,1.18s-.59,1-.83,1.5c-.17.3-.32.62-.51.91-.45.74-.8,1.53-1.18,2.3-.3.56-.58,1.12-.83,1.7s-.57,1.23-.84,1.85-.55,1.24-.79,1.87a5.82,5.82,0,0,0-.42,1,8.86,8.86,0,0,0-.34.85,8.86,8.86,0,0,0-.34.85,6.23,6.23,0,0,0-.33.85,6.28,6.28,0,0,0-.34.85c-.1.3-.19.6-.29.89-.27.59-.44,1.21-.69,1.8a5.31,5.31,0,0,0-.2.56c-.23.53-.25,1.11-.44,1.65-.13.37-.25.75-.39,1.12-.32.49-.23,1.11-.51,1.6A12.46,12.46,0,0,0,5,50.08C4.77,50.48,4.86,51,4.56,51.34Z"/><path class="cls-2" d="M16.2,51.15c-.13,0-.29,0-.32.19h-.34a.61.61,0,0,1-.13-.22,5.84,5.84,0,0,1,.74-1.85c.48-1.22,1.13-2.36,1.71-3.54a1,1,0,0,1,.63-.64C19.73,45,21,45,22.23,45a1,1,0,0,1,.76.27.68.68,0,0,1-.07.71C21.43,48.68,19.39,50.67,16.2,51.15Z"/><path class="cls-3" d="M4.56,51.34c0-.47-.09-1,.33-1.36.45.09,1-.24,1.34.33a1.29,1.29,0,0,1-.37.84c-.08.08-.2.11-.29.19Z"/><path class="cls-4" d="M14.52,51.34H9.29a.28.28,0,0,1,.13-.27,16.89,16.89,0,0,1,5,0A.19.19,0,0,1,14.52,51.34Z"/><path class="cls-5" d="M9.29,51.18a.43.43,0,0,0,0,.16H5.57l.18-.17a6.22,6.22,0,0,1,3.42-.1Z"/><path class="cls-6" d="M14.52,51.34c0-.05,0-.1,0-.15a.68.68,0,0,1,1,0,.76.76,0,0,1,0,.15Z"/><path class="cls-7" d="M16.2,51.15A10.15,10.15,0,0,0,23,45.43a5.71,5.71,0,0,1,.55-1.35c.11-.2.23-.39.35-.58a6.89,6.89,0,0,0,.51-1c.12-.22.23-.46.36-.68a4.18,4.18,0,0,0,.49-.85,9.09,9.09,0,0,1,.49-.86c.16-.22.25-.47.41-.68a.5.5,0,0,1,.41-.19,2.33,2.33,0,0,1,1.23,1.33c.06.16.11,0,.13,0a2.26,2.26,0,0,1,1,.15c.31.23.83.22.86.77a14.14,14.14,0,0,1-11,9.25A11.11,11.11,0,0,1,16.2,51.15Z"/><path class="cls-8" d="M76.13,42.18a.28.28,0,0,1,0-.13,11.7,11.7,0,0,1,1.59-1.78c.53-.43.86-1,1.34-1.5a11.43,11.43,0,0,0,.84-.87c.32-.46.71-.85,1-1.32a6.25,6.25,0,0,0,.69-.85,6.72,6.72,0,0,0,.84-1c.24-.29.44-.6.67-.89s.34-.66.81-.57a.58.58,0,0,1,.08.22,14,14,0,0,1-.55,1.84,3.38,3.38,0,0,1-.11.34c-.11.29-.21.59-.3.89s-.24.76-.38,1.13a12.68,12.68,0,0,0-.5,1.34,10.37,10.37,0,0,0-.5,1.35c-.27.62-.53,1.24-.79,1.86-.1.25-.23.5-.35.74s-.27.55-.4.83c-.29.6-.64,1.17-1,1.74s-.51,1.15-1.23,1.27a11.12,11.12,0,0,1-2-4.4A.45.45,0,0,1,76.13,42.18Z"/><path class="cls-9" d="M76.16,42.4A21,21,0,0,0,78,46.76a.23.23,0,0,1,.06.22,9,9,0,0,1-2.39,2.19,6.52,6.52,0,0,0,1.6.56c.26.08.65,0,.72.4H71.45c.09-.44.46-.3.73-.34a8.86,8.86,0,0,0,2.4-.65,17.13,17.13,0,0,1-3.15-3,.27.27,0,0,1,0-.23c.47-.53,1.12-.83,1.62-1.31.95-.76,1.84-1.58,2.79-2.33A.31.31,0,0,1,76.16,42.4Z"/><path class="cls-10" d="M47.47,32.76c-.67-2.22-1.21-4.48-1.68-6.76.06-.09.11-.21.23-.21a16.59,16.59,0,0,1,3,0,.61.61,0,0,1,.42.24,48.6,48.6,0,0,1,1.87,6c-.08.93-.09,1-1,.9a8.82,8.82,0,0,0-2,0A1.19,1.19,0,0,1,47.47,32.76Z"/><path class="cls-11" d="M99,7l9.8-.05c.22.24,0,.46,0,.69-.41.6-.67,1.29-1.11,1.87a.33.33,0,0,1-.24,0c-.15-.13-.23-.32-.44-.5,0,.5-.26.59-.64.61a11.5,11.5,0,0,1-1.18-.07,9,9,0,0,0-3.06.05.67.67,0,0,1-.42,0c-.93-.42-1.85.09-2.77,0-.4,0-.79,0-1.1-.28-.11-.57.33-1,.5-1.44C98.49,7.58,98.52,7.12,99,7Z"/><path class="cls-12" d="M71.44,46.11c.91.64,1.52,1.62,2.46,2.21a1.84,1.84,0,0,1,.25.23c.26.19.77.32.71.61s-.63.39-1,.48c-.8.19-1.61.33-2.42.49H68.56a10.67,10.67,0,0,1-2-.33c-.3-.12-.64-.19-.74-.57.15-.49.64-.5,1-.68.51-.28,1.08-.45,1.59-.73a6.18,6.18,0,0,0,.61-.37A16.54,16.54,0,0,1,71.44,46.11Z"/><path class="cls-13" d="M99,7l-.5.95a36.68,36.68,0,0,0-4,2.12c-.71.41-1.21,1.08-1.91,1.5a7.43,7.43,0,0,0-3-.15c-.45.12-1,.11-1.11-.55a14.16,14.16,0,0,1,7.63-3.57A12.18,12.18,0,0,1,99,7Z"/><path class="cls-14" d="M84.59,16.85A9.78,9.78,0,0,1,86,14a2.74,2.74,0,0,1,1.24,0,3.75,3.75,0,0,0,1.63-.07,1.64,1.64,0,0,1,1.6.42,2,2,0,0,1-.29.92c-.44.63-.45,1.48-1.05,2-1.28-.13-2.56.06-3.83-.11C85,17.13,84.63,17.36,84.59,16.85Z"/><path class="cls-15" d="M115.36,7.77a15.67,15.67,0,0,1-1.52,2.71c-1.39-.17-2.79-.15-4.19-.23a1,1,0,0,1-.57-.09.46.46,0,0,1-.06-.23A15.62,15.62,0,0,1,109.48,8a.9.9,0,0,1,.14-.2c.49-.46,1.12-.23,1.67-.26,1.16-.07,2.34,0,3.5,0C115,7.51,115.25,7.51,115.36,7.77Z"/><path class="cls-16" d="M96.43,39.34a3.88,3.88,0,0,1-.81,1.07c-.67,0-1.32.05-1.76-.66-.29-.48-1.06-.14-1.39-.66a.59.59,0,0,1,0-.23,5.64,5.64,0,0,1,.63-1.25,6.38,6.38,0,0,0,.53-1c.19-.34.35-.69.52-1s.2-.64.63-.62c.15,0,0,.37.35.28a4,4,0,0,1,1.4.14.75.75,0,0,1,.66.56.85.85,0,0,1-.13.58c-.44.84-1.13,1.51-1.61,2.37C95.7,39.19,96.31,38.77,96.43,39.34Z"/><path class="cls-17" d="M34.79,25.84a1.69,1.69,0,0,1-.34.84c-.34.47-.37,1.15-1,1.42A14.35,14.35,0,0,0,30.12,28a1.44,1.44,0,0,1-1.5-.47,1.49,1.49,0,0,1,.46-1.09c.45-.32.56-1,1.13-1.16a9.51,9.51,0,0,0,3,.18c.39,0,.78-.08,1.17,0S34.87,25.46,34.79,25.84Z"/><path class="cls-18" d="M90.36,14.35c-.7-.09-1.35-.54-2.13,0-.39.26-1-.15-1.45-.2-.25,0-.63.43-.81-.09a6.61,6.61,0,0,1,1.32-1.87c.72-.53,1.56-.32,2.34-.35a13.76,13.76,0,0,0,1.57,0,.64.64,0,0,1,.77.34.65.65,0,0,1,0,.24c-.35.56-.76,1.09-1.11,1.65C90.73,14.17,90.66,14.42,90.36,14.35Z"/><path class="cls-19" d="M71.43,24.32a14,14,0,0,1,.65,2.36c-.82.34-1.65-.06-2.48.05a2.51,2.51,0,0,0-1.13.15c-.41.22-.69-.21-.92-.54a4,4,0,0,1-.46-1.92.58.58,0,0,1,.6-.36c1.08,0,2.16.06,3.24,0A.66.66,0,0,1,71.43,24.32Z"/><path class="cls-20" d="M45.25,23.65l-.81-3.21a3.49,3.49,0,0,1,3,.1,2.55,2.55,0,0,1,.43.73c.14.37.25.75.41,1.11a4,4,0,0,1,.29.91.51.51,0,0,1-.08.34A8.82,8.82,0,0,1,45.25,23.65Z"/><path class="cls-21" d="M73.1,30.91l0,.17a4,4,0,0,1-1.85.29c-.25,0-.5,0-.75,0-1.3,0-1.32,0-1,1.23a2.79,2.79,0,0,1,.18.58.7.7,0,0,1-.09.47,1.91,1.91,0,0,1-1.5.25c-.81-.16-1.67.15-2.48-.21a2.47,2.47,0,0,1-.48-1A2.6,2.6,0,0,1,65,31.59c.56-.51.62.4,1,.3.24-.88.45-.94,1.3-.49.66.34,1-.4,1.44-.57.1,0,.16-.22.27-.3a14.44,14.44,0,0,1,2.46,0,2.82,2.82,0,0,0,.82,0C72.71,30.36,72.91,30.62,73.1,30.91Z"/><path class="cls-11" d="M55,48.16a5.33,5.33,0,0,1-1.67-1.67c.06-.56.54-.6.91-.61a11.58,11.58,0,0,1,3.22.11,7,7,0,0,1,2.17,2.33,6.25,6.25,0,0,1-2.2,0A6.43,6.43,0,0,1,55,48.16Z"/><path class="cls-14" d="M19,19.4a34.83,34.83,0,0,1,5.12-5.86c.38,0,.9-.22.94.48,0,.34-.31.54-.51.79a59.22,59.22,0,0,0-3.83,4.8.71.71,0,0,1-.44.37C20,19.5,19.31,19.94,19,19.4Z"/><path class="cls-22" d="M89.34,47.24a10.13,10.13,0,0,1-7.1,2.89c-.25-.2-.7.18-.87-.28a5.89,5.89,0,0,1,1.8-.78,9.46,9.46,0,0,0,1.61-.84c.37-.27.73-.56,1.11-.82a.9.9,0,0,1,.22-.06c.45,0,.7-.44,1.11-.54a1.83,1.83,0,0,1,.25-.06,4.23,4.23,0,0,1,1.42,0C89.12,46.81,89.51,46.77,89.34,47.24Z"/><path class="cls-12" d="M78,50.13a18.28,18.28,0,0,1-2.29-.69c-.31-.16-.4-.35-.07-.51A17.28,17.28,0,0,0,78,47c.25-.09.32.14.45.26.24.34.45.7.71,1,.45.69,1.3,1,1.76,1.64-.13.39-.51.09-.72.26Z"/><path class="cls-23" d="M29.74,41.57c-.27-.45-1-.33-1.14-1,0-.16-.36.06-.51.2s-.24.2-.48.06c-.45-.24,0-.21.05-.31s0-.13-.07-.13c-.75.07-.62-.79-1.08-1-.23-.35,0-.6.18-.88s.21-.51.44-.68a.86.86,0,0,1,.23-.06,1.42,1.42,0,0,1,1.51.73s0,.14.07.1c.75-.32,1.07.48,1.63.63A8.22,8.22,0,0,1,29.74,41.57Z"/><path class="cls-14" d="M72.42,28a7,7,0,0,1,.37,1.69,11.67,11.67,0,0,1-3.82.17.75.75,0,0,1-.5-.28c-.22-.64-.75-1.23-.32-2,1.14,0,2.28,0,3.41,0A.84.84,0,0,1,72.42,28Z"/><path class="cls-24" d="M49.33,38.84a6.21,6.21,0,0,1-.55-1.64c0-.47.4-.46.65-.42a10.26,10.26,0,0,0,3.36-.2.36.36,0,0,1,.19.13,7.84,7.84,0,0,1,.61,2.11A7.28,7.28,0,0,1,51,39,3.24,3.24,0,0,1,49.33,38.84Z"/><path class="cls-25" d="M33.94,7.9c.27-.22.59-.14.89-.14q12,0,24.09,0a5.57,5.57,0,0,1,2.9.66c-.09.52-.49.33-.77.31a22.16,22.16,0,0,0-3.26,0c-.84-.09-1.56-.64-2.43-.61-1.18,0-2.35,0-3.52,0s-2.34.06-3.5,0c-.74,0-1.47,0-2.2,0-.53,0-1,0-1.57,0-.85,0-1.69.05-2.54,0-1.72,0-3.44,0-5.15,0-.69,0-1.37,0-2.06,0C34.51,8.14,34.16,8.21,33.94,7.9Z"/><path class="cls-26" d="M34.79,25.84c-.33-.43-.79-.2-1.18-.18a12.32,12.32,0,0,1-3.21-.08c-.15,0-.16-.12-.16-.23a.21.21,0,0,1-.07-.22,2.68,2.68,0,0,1,1.06-1.22c1.09,0,2.18,0,3.27,0,.33,0,.69,0,.89.33.11.56-.24,1-.44,1.44Z"/><path class="cls-27" d="M63.34,9.28a5.48,5.48,0,0,1,1.85,1.53c-.13.32-.39.18-.62.21-1.18.15-2.36-.38-3.53.06a.58.58,0,0,1-.23,0c-.39-.19-.62-.58-1-.79s-.85-.45-.89-1A8.67,8.67,0,0,1,63.34,9.28Z"/><path class="cls-28" d="M48.32,35.81A8.73,8.73,0,0,1,47.8,34c.34-.49,1-.2,1.2-.12.75.27,1.44-.29,2.15,0,.22.09.38-.34.67-.26a2.67,2.67,0,0,1,.56,1.56c0,.41-.17.76-.59.78A9.21,9.21,0,0,1,48.32,35.81Z"/><path class="cls-29" d="M83.05,21.61a5.62,5.62,0,0,1,.53-1.72c1,.07,2-.1,3,0a1.36,1.36,0,0,0,.75,0c.56-.31.68.07.8.47a1.49,1.49,0,0,1-.38,1.14,2.5,2.5,0,0,1-1.54.23C85.17,21.6,84.1,22.19,83.05,21.61Z"/><path class="cls-30" d="M51.15,43.08a4.07,4.07,0,0,1-.65-1.36c0-.35.24-.36.43-.35,1.26.08,2.52-.09,3.78.09a2.43,2.43,0,0,1,.92,1.72c-.93.39-1.91.07-2.87.14A2.09,2.09,0,0,1,51.15,43.08Z"/><path class="cls-31" d="M109.11,10.13c.92-.32,1.86,0,2.79,0,.59,0,1.4-.29,1.94.37a4,4,0,0,1-.68,1.18,12.4,12.4,0,0,1-3.22,0,1,1,0,0,0-.74.1c-.33.23-.44,0-.57-.23a1.06,1.06,0,0,1,0-.47c.06-.19.12-.38.19-.56A.63.63,0,0,1,109.11,10.13Z"/><path class="cls-32" d="M92.55,39c.22.38.67,0,.83.2s1,.16,1,.85c0,.16.28.11.44.13s.62-.11.84.21a2.09,2.09,0,0,1-.64.83c-.73.3-1.62,0-2.27.59a1.25,1.25,0,0,1-1.42-.64.91.91,0,0,1,.14-.7c.21-.32.39-.65.58-1S92.17,39,92.55,39Z"/><path class="cls-11" d="M74.61,37.16,75,38.68a.33.33,0,0,1-.32.23c-1.24-.09-2.49.24-3.73-.06a2.74,2.74,0,0,1-.43-1.78,5.3,5.3,0,0,1,2.24-.1C73.36,37,74,36.74,74.61,37.16Z"/><path class="cls-33" d="M108.76,11.48c.15.51.35,0,.53,0a5.56,5.56,0,0,1,2,.16c.32.14,1-.14,1.5-.19.18,0,.19.17.32.2a6.43,6.43,0,0,1-.85,1.51c-1.34-.17-2.7.17-4-.1a.51.51,0,0,1-.13-.37C108.32,12.28,108.19,11.7,108.76,11.48Z"/><path class="cls-13" d="M30.57,39.19c-.4-.12-1,.12-1.1-.56-.62.35-.91-.23-1.24-.51s-.58-.21-.87-.3a.34.34,0,0,1-.09-.32c.2-.39.43-.75.66-1.12a.63.63,0,0,1,.48-.32,1.39,1.39,0,0,1,.74.38c.48.53.94.84,1.62.28.12-.1.53-.16.49.29A10.62,10.62,0,0,1,30.57,39.19Z"/><path class="cls-34" d="M80.55,29.73A4.44,4.44,0,0,1,81,28.17a22.19,22.19,0,0,1,4.39.13c.37.62,0,1.1-.29,1.6-1.33.14-2.67-.16-4,.08A.65.65,0,0,1,80.55,29.73Z"/><path class="cls-35" d="M50.14,40.91a3.33,3.33,0,0,1-.49-1.22c-.17-.58.31-.49.58-.51a26,26,0,0,1,3.42.06,1.68,1.68,0,0,1,.81,1.55,3,3,0,0,1-1.77.15A10.86,10.86,0,0,1,50.14,40.91Z"/><path class="cls-36" d="M83.92,33.23l-.66.71a13.83,13.83,0,0,1-3.15.05c-.35,0-.75,0-.74-.56a1.89,1.89,0,0,1,.32-1c.6-.44,1.28,0,1.92-.14a5.82,5.82,0,0,1,2.16,0c.2,0,.39.07.45.3A.55.55,0,0,1,83.92,33.23Z"/><path class="cls-21" d="M31.26,37c-.3-.29-.49-.23-.73.11a.62.62,0,0,1-1,0c-.27-.53-.83-.61-1.15-1s.1-.58.2-.86.25-.5.41-.72a.63.63,0,0,1,.42-.21,1.69,1.69,0,0,1,1.09.66c.58-.56.59.35,1,.38s.25.27.16.47A2.24,2.24,0,0,1,31.26,37Z"/><path class="cls-37" d="M75.19,39.51a5.39,5.39,0,0,1,.43,1.36,6.73,6.73,0,0,1-2.6.3,1.41,1.41,0,0,0-1.11.42c-.31-.07-.34-.35-.45-.57-.12-.51-.44-1-.21-1.54A9.35,9.35,0,0,1,75.19,39.51Z"/><path class="cls-38" d="M6.76,43.58a7.15,7.15,0,0,1,.68-1.86,22.63,22.63,0,0,0,2.47-.06c.28,0,.56,0,.78.22a3.15,3.15,0,0,1-.93,1.92c-.95.25-1.91-.09-2.86.1C6.79,43.92,6.68,43.74,6.76,43.58Z"/><path class="cls-39" d="M80.05,31.23a2.09,2.09,0,0,1,.33-1,14.62,14.62,0,0,0,3.24,0,1.37,1.37,0,0,1,1.26.25,2.3,2.3,0,0,1-.46,1.64c-1-.56-2,0-3-.23-.34-.09-.71-.1-1.07-.16S79.87,31.59,80.05,31.23Z"/><path class="cls-40" d="M72.42,28a11.58,11.58,0,0,0-3-.16,2.66,2.66,0,0,1-1.31-.17,1.06,1.06,0,0,1-.33-1.35c.32.58.75.2,1.18.19,1.06,0,2.11.09,3.17.14Z"/><path class="cls-41" d="M60.92,11A2.53,2.53,0,0,1,63,10.77c.74.08,1.47,0,2.21,0,.47.28.67.79,1,1.18a.65.65,0,0,1-.53.21,22.6,22.6,0,0,1-3.77,0,1.35,1.35,0,0,1-.46-.24C61.17,11.69,60.88,11.44,60.92,11Z"/><path class="cls-42" d="M81.9,25.32a3.18,3.18,0,0,1,.35-1.17c.08-.07.16-.19.27-.18a36.64,36.64,0,0,1,4.06.05.42.42,0,0,1,.28.16,2.18,2.18,0,0,1-.41,1.52A23.33,23.33,0,0,0,82,25.53a.13.13,0,0,1-.14-.07A.11.11,0,0,1,81.9,25.32Z"/><path class="cls-14" d="M33.27,30.57a24,24,0,0,1-1,3.22c-.64-.39-1.49-.48-1.82-1.31A.91.91,0,0,1,30.6,32c.24-.39.47-.8.7-1.2s.34-.75.8-.85A1.53,1.53,0,0,1,33.27,30.57Z"/><path class="cls-43" d="M51.68,33.61c0,.26-.5.35-.2.75A1,1,0,0,0,50,34.21c-.08.06-.27.09-.3,0-.48-.57-1.22.16-1.7-.34,0,0-.16,0-.24,0a2.9,2.9,0,0,1-.33-1.19,14.25,14.25,0,0,1,3.13,0c.71.15.43-.3.57-.49C51.78,32.55,51.72,33.08,51.68,33.61Z"/><path class="cls-18" d="M30.57,32.43a1.38,1.38,0,0,0,1.06.81.75.75,0,0,1,.63.55,7.93,7.93,0,0,1-.66,2.07c-.22-.38-.77-.45-.82-1-.37.09-.05.36-.24.52a2.19,2.19,0,0,0-1.15-1c-.18-.2-.06-.38,0-.57C29.81,33.41,29.87,32.66,30.57,32.43Z"/><path class="cls-44" d="M48.32,35.81c1.08-.14,2.16,0,3.24-.06.5,0,.65-.18.63-.62a1.11,1.11,0,0,1,.5,1.52c-.75.71-1.78.11-2.64.52-.22.1-.83-.4-1.27,0A4.64,4.64,0,0,1,48.32,35.81Z"/><path class="cls-45" d="M12,31.06a12.06,12.06,0,0,1,1.19-2.35c.71.14,1.52-.3,2.13.39.09.71-.38,1.25-.61,1.85a.46.46,0,0,1-.31.2,3.67,3.67,0,0,0-.66,0c-.09,0-.19-.09-.27.07-.24.45-.32.51-.64.17S12.05,31.69,12,31.06Z"/><path class="cls-46" d="M9.47,36.48l.83-1.86a9.57,9.57,0,0,1,2-.14.81.81,0,0,1,.79.38,3,3,0,0,1-.63,1.84C11.48,36.48,10.46,36.68,9.47,36.48Z"/><path class="cls-47" d="M51.15,43.08c1.32,0,2.63.05,3.94.05a1.25,1.25,0,0,1,.48.11.84.84,0,0,1,.67,1,7.06,7.06,0,0,1-2.89.14c-.51,0-1.07.2-1.55-.16A3.64,3.64,0,0,1,51.15,43.08Z"/><path class="cls-48" d="M111.47,14.69a8.13,8.13,0,0,1-.84,1.53c-.94-.39-2,.4-2.91-.24-.07-.05-.29.23-.5.1a.49.49,0,0,1-.09-.35,2.44,2.44,0,0,1,.36-1l.2-.14a15.05,15.05,0,0,1,3.55-.07A.31.31,0,0,1,111.47,14.69Z"/><path class="cls-49" d="M12,31.06c.07.1.18.17.28.09.42-.39.67-.33.78.25,0,.15.19.19.43.1-.22-.2-.47-.59-.21-.66a1.15,1.15,0,0,1,1.1.24,3.09,3.09,0,0,1-.71,2.23A1.82,1.82,0,0,0,12,33.24c-.33.15-.67-.13-.86-.47A6,6,0,0,1,12,31.06Z"/><path class="cls-50" d="M11.15,32.77c.6.61,1.27-.06,1.92.08a.49.49,0,0,1,.44.42A1.3,1.3,0,0,1,13,34.79c-.88-.27-1.81.09-2.69-.17A8.86,8.86,0,0,1,11.15,32.77Z"/><path class="cls-51" d="M108.78,19.43c-.51.52-.55,1.3-1,1.83a11.7,11.7,0,0,1-2.51-.09c-.2-.23-.09-.46,0-.69s.14-.29.2-.43a5.14,5.14,0,0,1,.41-1,.3.3,0,0,1,.22-.06,10.49,10.49,0,0,0,2.31.09C108.69,19.12,108.72,19.22,108.78,19.43Z"/><path class="cls-25" d="M115.36,7.77l-3.69,0a5,5,0,0,0-1.89.19c-.3-.39-.15-.71.16-1H115c.25,0,.64-.17.73.18A.63.63,0,0,1,115.36,7.77Z"/><path class="cls-52" d="M68.39,15.71l.48,1a24.83,24.83,0,0,1-4.31.16.92.92,0,0,1-.23-.09,1.88,1.88,0,0,1-.42-.74.53.53,0,0,1,0-.35A8.5,8.5,0,0,1,68.39,15.71Z"/><path class="cls-53" d="M25,14c-.13-.12-.07-.56-.47-.24-.2.17-.34,0-.37-.24A19.75,19.75,0,0,1,28,10.36c.46.06.65.3.54.76-1,.89-2,1.76-3,2.67C25.42,13.93,25.26,14.12,25,14Z"/><path class="cls-21" d="M28.54,11c0-.37-.39-.37-.5-.62a13.52,13.52,0,0,1,5.9-2.46l.87,0c0,.33-.25.35-.44.41A14.3,14.3,0,0,0,29.23,11a.6.6,0,0,1-.46.15A.46.46,0,0,1,28.54,11Z"/><path class="cls-54" d="M55,48.16c.38-.39.73.09,1.12,0a11.75,11.75,0,0,1,3.5.11,1.45,1.45,0,0,1,1.39.8c-.11.3-.36.32-.63.28a6.05,6.05,0,0,0-2.36,0c-.57.14-1-.45-1.61-.31A3.89,3.89,0,0,1,55,48.16Z"/><path class="cls-55" d="M64.51,16.72a37.31,37.31,0,0,1,4.36,0l.39,1a14.63,14.63,0,0,1-4.48,0C64.51,17.47,64.29,17.15,64.51,16.72Z"/><path class="cls-56" d="M56.42,49.12c.38-.16.75-.32,1.11.07a.33.33,0,0,0,.28.11,5.93,5.93,0,0,1,2.93-.07c.07,0,.15,0,.23-.08.85-.14,1.5.39,2.23.68-.29.55-.84.06-1.21.3h-.35a2.57,2.57,0,0,0-1.17,0A7.12,7.12,0,0,1,56.42,49.12Z"/><path class="cls-57" d="M51.8,44.27l4.43,0c.26.06.34.29.48.47a.46.46,0,0,1,0,.44,2.09,2.09,0,0,1-2.14.24c-.63-.19-1.22.31-1.8-.06a.4.4,0,0,1-.14.29A4.74,4.74,0,0,1,51.8,44.27Z"/><path class="cls-58" d="M86.8,24.15H82.25a2,2,0,0,1,.28-.86,1.33,1.33,0,0,1,.85-.3,21.37,21.37,0,0,1,3.2,0c.33,0,.54.13.57.48S87.11,24,86.8,24.15Z"/><path class="cls-35" d="M69.41,32.6s-.09-.08-.11-.12c-.37-1.29-.26-1.4,1.09-1.35.91,0,1.82,0,2.73-.05l.31,1.18c-1,.19-2,0-3.06.12A2,2,0,0,0,69.41,32.6Z"/><path class="cls-59" d="M82.59,34.8a2.8,2.8,0,0,1-.83,1,10.23,10.23,0,0,1-3.22,0L79,34.62a.74.74,0,0,1,.57-.3c.85,0,1.71,0,2.56,0C82.4,34.4,82.65,34.44,82.59,34.8Z"/><path class="cls-47" d="M73.93,34.46a3.61,3.61,0,0,1,.26,1.17,18,18,0,0,1-4.08.2,1.38,1.38,0,0,1-.29-1.29,10.9,10.9,0,0,1,3.07-.14C73.23,34.38,73.6,34.22,73.93,34.46Z"/><path class="cls-21" d="M91.88,12.16c-.2-.28-.45-.23-.75-.19a9.44,9.44,0,0,1-2.49,0c-.47-.07-.86.36-1.35.21a4.45,4.45,0,0,1,1.22-1.3c.44.53,1,.38,1.55.27a3.85,3.85,0,0,1,2.49.36C92.57,12,92.35,12.18,91.88,12.16Z"/><path class="cls-60" d="M83.74,19.42a3.29,3.29,0,0,1,.36-1.19c1.25,0,2.49.07,3.74,0,.35,0,.75,0,.83.5a1.12,1.12,0,0,1,0,.48c-.09.23-.13.49-.41.57a2.82,2.82,0,0,0-1.76-.29A9.54,9.54,0,0,1,83.74,19.42Z"/><path class="cls-61" d="M71.43,24.32a31.13,31.13,0,0,0-4.21,0c-.55-.27-.58-.66-.25-1.13a8.79,8.79,0,0,1,4.14.12A1.89,1.89,0,0,1,71.43,24.32Z"/><path class="cls-53" d="M68.57,29.56c1.13.43,2.28.08,3.42.1.28,0,.54.05.8.06l.31,1.19c-.59-.49-1.3-.15-1.93-.21s-1.39-.05-2.09-.13a.21.21,0,0,1-.24,0C68.55,30.3,68.35,30,68.57,29.56Z"/><path class="cls-23" d="M69.41,32.6c0-.18-.06-.48.24-.44,1.25.12,2.53-.29,3.78.1l.2,1a9.71,9.71,0,0,1-4-.17Z"/><path class="cls-62" d="M83.05,21.61c1.54.13,3.06-.27,4.6-.16.28.41.09.74-.19,1.06a20.44,20.44,0,0,1-4.69-.05A1.86,1.86,0,0,1,83.05,21.61Z"/><path class="cls-63" d="M71.11,23.31H66.88a.45.45,0,0,1-.28-.21,1.11,1.11,0,0,1-.13-.8c.06-.1.15-.21.25-.19a27.5,27.5,0,0,0,3.63.08c.23,0,.45,0,.56.27A1.33,1.33,0,0,1,71.11,23.31Z"/><path class="cls-64" d="M96.43,39.34s-.08-.1-.12-.11c-.39-.06-1,.12-1.11-.15s.35-.75.59-1.11c.34-.52.76-1,1.15-1.49.87-.28.9-.25,1,.68A14.25,14.25,0,0,1,96.43,39.34Z"/><path class="cls-65" d="M15.2,25.16a9.85,9.85,0,0,1,1.17-1.88c.63-.15,1.28-.47,1.81.23a4,4,0,0,1-1.18,2c-.41,0-.81,0-1.22.06S15.16,25.61,15.2,25.16Z"/><path class="cls-66" d="M44.1,19.08l-.49-1.68a7.41,7.41,0,0,1,2.53-.08,1.45,1.45,0,0,1,.46.68,5,5,0,0,1,.29.9.47.47,0,0,1-.09.22A17.39,17.39,0,0,1,44.1,19.08Z"/><path class="cls-32" d="M52.68,45.63c.06-.14-.09-.4.16-.4a10,10,0,0,1,2.56.07,1.85,1.85,0,0,0,1.34-.2c.46.18.77.46.69,1-1,0-1.93,0-2.89,0a1.57,1.57,0,0,0-1.2.42A2.42,2.42,0,0,1,52.68,45.63Z"/><path class="cls-67" d="M108.78,19.43a.55.55,0,0,0-.7-.14c-.6.21-1.21-.1-1.8.08-.17.05-.2-.15-.22-.29-.2-.25,0-.49,0-.73s.21-.51.54-.54c.71,0,1.43,0,2.14.05.26,0,.65-.07.67.39A2.84,2.84,0,0,1,108.78,19.43Z"/><path class="cls-68" d="M111.47,14.69a21,21,0,0,0-3.72,0c-.25-.33-.08-.65,0-1a.47.47,0,0,1,.25-.27c1.38,0,2.76,0,4.14.06Z"/><path class="cls-69" d="M42.4,16.72a4.22,4.22,0,0,1-1,1,23.78,23.78,0,0,1-3.16.08c-.27,0-.57,0-.66-.37a.93.93,0,0,1,.51-.88,31.59,31.59,0,0,1,3.77-.08A.75.75,0,0,1,42.4,16.72Z"/><path class="cls-70" d="M72,41.55c0-.4,0-.63.62-.59a28.25,28.25,0,0,0,3.05-.09L76,42.06A12.92,12.92,0,0,1,72.36,42c-.11,0-.14.18-.28.15a.45.45,0,0,1-.21-.12A.4.4,0,0,1,72,41.55Z"/><path class="cls-49" d="M81.39,27a2.1,2.1,0,0,1,.35-1.19,18.81,18.81,0,0,0,3.52.1c.34,0,.75-.11,1,.3a1,1,0,0,1-.32,1,25.4,25.4,0,0,0-3.38-.1C82.16,27.1,81.76,27.25,81.39,27Z"/><path class="cls-71" d="M70.91,22.46a13.42,13.42,0,0,0-2.37-.08l-2-.09a.76.76,0,0,1-.31-.35c-.09-.21-.21-.43-.07-.67,1.2.06,2.4-.1,3.6.06a1.44,1.44,0,0,1,.86.27A1.86,1.86,0,0,1,70.91,22.46Z"/><path class="cls-72" d="M81.39,27a11.38,11.38,0,0,1,2.26,0c.58,0,1.17-.14,1.78-.11.32,0,.22.25.38.29.2.25.11.47-.09.68a19,19,0,0,1-4.64,0A1.76,1.76,0,0,1,81.39,27Z"/><path class="cls-73" d="M67.54,14l.49.85c0,.06,0,.14-.09.14a29.39,29.39,0,0,1-4.5-.11A.78.78,0,0,1,63.1,14,8.68,8.68,0,0,1,67.54,14Z"/><path class="cls-74" d="M73.93,34.46a5.25,5.25,0,0,1-2.3.06c-.56-.11-1.15.38-1.71-.07a.49.49,0,0,1-.32-.52.45.45,0,0,1,.42-.44c1.13-.13,2.26.06,3.39,0a.39.39,0,0,1,.36.3Z"/><path class="cls-75" d="M80.05,31.23c.11.65.7.33,1,.39a5,5,0,0,0,2.39,0c.49-.15.71,0,.84.44a.37.37,0,0,1,.13.29.58.58,0,0,1-.07.21.21.21,0,0,1-.2,0,4.79,4.79,0,0,0-2.48-.18c-.67,0-1.32-.12-2,0A2.21,2.21,0,0,1,80.05,31.23Z"/><path class="cls-76" d="M50.14,40.91c1.12-.37,2.29,0,3.43-.2a1.15,1.15,0,0,1,.81.16c.32.13.53.3.34.68a23.37,23.37,0,0,1-3.45,0c-.27,0-.56-.11-.77.15A1.65,1.65,0,0,1,50.14,40.91Z"/><path class="cls-77" d="M86.14,26.18c-1-.16-2,.07-3.08,0a2.05,2.05,0,0,1-1.32-.34.56.56,0,0,1,.16-.51,7,7,0,0,1,2.7.13,1.18,1.18,0,0,0,.81-.06c.45-.24.68-.05.9.29S86.5,26.11,86.14,26.18Z"/><path class="cls-78" d="M82.77,22.46a36.36,36.36,0,0,1,4.55,0c.23.46.21.82-.34,1-.11-.57-.54-.21-.8-.24a12.75,12.75,0,0,0-3.65.05A2,2,0,0,1,82.77,22.46Z"/><path class="cls-79" d="M63.55,14.86c1.49,0,3-.08,4.48,0a1.86,1.86,0,0,1,.36.84,21.37,21.37,0,0,0-4.38,0c-.43,0-.45-.37-.57-.65A.21.21,0,0,1,63.55,14.86Z"/><path class="cls-80" d="M49.31,26a23,23,0,0,0-3.52,0l-.21-1c0-.08.08-.17.15-.18a7.47,7.47,0,0,1,3.26.12,1.15,1.15,0,0,1,.3.51C49.34,25.63,49.43,25.82,49.31,26Z"/><path class="cls-81" d="M109.45,18.25a6.47,6.47,0,0,0-2.36-.19c-.19,0-.39,0-.52-.17-.27-.4-.09-.72.18-1a5.94,5.94,0,0,1,3.39.19A3,3,0,0,1,109.45,18.25Z"/><path class="cls-82" d="M110.14,17.06l-3.23-.18a.35.35,0,0,1-.1-.34c.09-.21.07-.51.43-.5a1.47,1.47,0,0,1,.88-.08c.43,0,.95.43,1.27-.24a.15.15,0,0,1,.27,0c.16.5.73.18,1,.51Z"/><path class="cls-83" d="M70.63,21.6a16.65,16.65,0,0,0-3.31-.12,2.08,2.08,0,0,1-1.11-.2.58.58,0,0,1-.28-.39.42.42,0,0,1,.11-.34,38.39,38.39,0,0,1,3.87-.07c.2,0,.33.19.49.29Z"/><path class="cls-84" d="M42.4,16.72H38c-.19-.24-.07-.48,0-.71a.53.53,0,0,1,.27-.24c1.17,0,2.34,0,3.51,0,.41,0,.86,0,1.09.43A1.12,1.12,0,0,1,42.4,16.72Z"/><path class="cls-44" d="M84.59,16.85A14.75,14.75,0,0,0,88.1,17c.29,0,.72-.34.91.21s.22.86-.39,1c-.93-.46-1.93-.17-2.9-.26-.49,0-1,.13-1.45-.25A2,2,0,0,1,84.59,16.85Z"/><path class="cls-85" d="M7.76,40.87A1.26,1.26,0,0,1,8.09,40c1-.47,2.08,0,3.12,0,.21,0,.26.26.28.46a.83.83,0,0,1-.44.84c-.87-.19-1.75.08-2.63,0C8.14,41.21,7.8,41.32,7.76,40.87Z"/><path class="cls-86" d="M6.08,45.77c.21-.55.11-1.2.51-1.69a2.06,2.06,0,0,0,1.34.28c.45,0,1.11-.28,1.32.48-.14.52-.29,1-.92,1.19C7.59,45.92,6.79,46.23,6.08,45.77Z"/><path class="cls-87" d="M84.8,30.41c-.93,0-1.88.23-2.77.13-.52-.06-1.23.3-1.65-.33l.18-.48,3.74,0a.69.69,0,0,1,.66.21C85.09,30.13,85.14,30.33,84.8,30.41Z"/><path class="cls-88" d="M70.26,35.81c.46-.43,1,0,1.57-.19a8.49,8.49,0,0,1,2.36,0l.25.85a.43.43,0,0,1-.28.16,18.53,18.53,0,0,1-3.87-.13A.46.46,0,0,1,70.26,35.81Z"/><path class="cls-28" d="M84.27,17.73H88c.37,0,.69,0,.65.51.13.23.21.44-.17.51-.52-.64-1.21-.19-1.81-.27-.86-.12-1.76.18-2.59-.25A.67.67,0,0,1,84.27,17.73Z"/><path class="cls-82" d="M67.54,14a43.45,43.45,0,0,0-4.42,0,.37.37,0,0,1-.39-.18.63.63,0,0,1-.1-.56c.18-.23.44-.21.69-.21,1,0,1.93,0,2.9,0a1.71,1.71,0,0,1,.86.27A1.31,1.31,0,0,1,67.54,14Z"/><path class="cls-89" d="M92.72,41.72c.62-.78,1.47-.49,2.26-.48a7.59,7.59,0,0,1-1.36,1.68,2.38,2.38,0,0,1-1.72.14c-.36-.15-.23-.38-.08-.61A2.37,2.37,0,0,1,92.72,41.72Z"/><path class="cls-90" d="M83.74,19.42a38.91,38.91,0,0,1,4-.08c.33,0,.35.19.38.42s.2.45-.17.51c-.13-.31-.28-.22-.6-.24-1.27-.07-2.56.34-3.81-.14A.58.58,0,0,1,83.74,19.42Z"/><path class="cls-91" d="M6.08,45.77c.79.1,1.62-.22,2.38.2a1.28,1.28,0,0,1-.63,1.38,10.45,10.45,0,0,0-1.58-.07c-.21,0-.55.09-.52-.34A3.44,3.44,0,0,1,6.08,45.77Z"/><path class="cls-92" d="M39.51,19.93l-1.15,1.36c-.67.06-1.34.38-2,.06a.31.31,0,0,1-.11-.21,3.55,3.55,0,0,1,.32-1.05.75.75,0,0,1,.27-.26A9.11,9.11,0,0,1,39,19.68C39.23,19.69,39.42,19.7,39.51,19.93Z"/><path class="cls-54" d="M75.19,39.51H71.28a.4.4,0,0,1-.18-.67L75,38.68A1.51,1.51,0,0,1,75.19,39.51Z"/><path class="cls-93" d="M63.34,9.28a37.82,37.82,0,0,0-4.39,0,.24.24,0,0,1-.21.07c-.35-.16-.74-.28-.86-.72a13.44,13.44,0,0,1,3.17-.07c.27,0,.54.13.77-.13A3.92,3.92,0,0,1,63.34,9.28Z"/><path class="cls-94" d="M9.47,36.48a5.2,5.2,0,0,1,2.87.17.53.53,0,0,1,.12.48c-.08.27-.08.6-.39.74-.79,0-1.55-.27-2.34-.28-.22,0-.45.09-.64-.1A2.19,2.19,0,0,1,9.47,36.48Z"/><path class="cls-95" d="M82.59,34.8c-.14-.46-.52-.19-.77-.21a9.13,9.13,0,0,0-2.81,0,2.08,2.08,0,0,1,.36-1.19c.48.64,1.18.26,1.77.39s1.43-.25,2.12.12A2.67,2.67,0,0,1,82.59,34.8Z"/><path class="cls-96" d="M8.43,39.17a1.19,1.19,0,0,1,.33-.84,6.34,6.34,0,0,1,3.15.06,1.07,1.07,0,0,1-.37,1.2c-.81-.08-1.62,0-2.43-.06C8.84,39.51,8.47,39.63,8.43,39.17Z"/><path class="cls-91" d="M81.1,36.66a5.81,5.81,0,0,1-1,1.31c-.72-.25-1.47.09-2.19-.14a4.56,4.56,0,0,1,.5-1.36A4.51,4.51,0,0,1,81.1,36.66Z"/><path class="cls-97" d="M69.56,18.41a1.08,1.08,0,0,1,.2.67,8.55,8.55,0,0,1-2.62.2,11.94,11.94,0,0,1-1.58,0,.7.7,0,0,1-.23-.11.67.67,0,0,1-.21-.69c.84-.58,1.79-.22,2.68-.26C68.37,18.17,69,17.9,69.56,18.41Z"/><path class="cls-98" d="M62,50.13c.34-.33.85,0,1.18-.3.68-.55,1.56-.5,2.33-.79a.42.42,0,0,1,.37.11,4.53,4.53,0,0,0,2.24.83c.16.05.33,0,.45.15Z"/><path class="cls-99" d="M42.9,16.21c-1-.48-2.12-.18-3.18-.24a4.5,4.5,0,0,1-1.37-.09c-.13-.3.12-.44.27-.62a.84.84,0,0,1,.45-.2,15.51,15.51,0,0,0,2.81,0,1.23,1.23,0,0,1,1.09.27,1,1,0,0,1,.27.41.55.55,0,0,1,0,.47Z"/><path class="cls-36" d="M7.76,40.87a3.87,3.87,0,0,0,2,.16c.44,0,.88-.13,1.23.24a.33.33,0,0,1,0,.32c-.09.16-.14.38-.41.3A6.77,6.77,0,0,0,8.31,42a.7.7,0,0,1-.87-.29A1.61,1.61,0,0,1,7.76,40.87Z"/><path class="cls-100" d="M6.09,50.34c-.31-.41-.89.07-1.2-.36a2.51,2.51,0,0,1,.35-1.51,2,2,0,0,1,1.9,0A2.17,2.17,0,0,1,6.09,50.34Z"/><path class="cls-68" d="M61.77,12l4.43,0c.3.13.35.38.37.67a.94.94,0,0,1-.76.26c-1.11,0-2.23.06-3.34,0C62,12.75,61.67,12.57,61.77,12Z"/><path class="cls-101" d="M69.56,18.41a42.27,42.27,0,0,0-4.36,0,.41.41,0,0,1-.27-.17c-.08-.17-.2-.33-.05-.51h4.38Z"/><path class="cls-32" d="M70.43,36.48c1.33-.18,2.67.05,4,0l.17.68c-1.11.18-2.23-.21-3.35.09-.18,0-.44-.17-.66-.26s-.23,0-.28-.17A.37.37,0,0,1,70.43,36.48Z"/><path class="cls-53" d="M47.44,20.6c-1-.41-2-.11-3-.16l-.32-1.18a14.88,14.88,0,0,1,2.67,0,1.18,1.18,0,0,1,.71,1.21Z"/><path class="cls-102" d="M37.66,17.57a21.12,21.12,0,0,0,2.87.08c.29,0,.6-.07.88.1-.18.22-.37.44-.56.65a5.5,5.5,0,0,1-3.56,0A.71.71,0,0,1,37.66,17.57Z"/><path class="cls-103" d="M11.83,38.34a19.67,19.67,0,0,1-3.07,0,1.32,1.32,0,0,1,.33-.84,3,3,0,0,1,2.13.16s.21-.11.32-.18c.45-.25.44.07.45.37S12.19,38.27,11.83,38.34Z"/><path class="cls-104" d="M7.11,48.48H5.24c.22-.49.12-1.08.49-1.53.43.3.92.12,1.38.15a.85.85,0,0,1,.66.2A1.05,1.05,0,0,1,7.11,48.48Z"/><path class="cls-105" d="M112.15,13.51a10.87,10.87,0,0,1-4.06,0c-.18-.25,0-.39.17-.51a11.36,11.36,0,0,0,2.44-.22,2.73,2.73,0,0,1,1.61.39A.35.35,0,0,1,112.15,13.51Z"/><path class="cls-106" d="M13.67,27.86a5.09,5.09,0,0,1,.84-1.53c.68,0,1.44-.11,1.81.72a1.64,1.64,0,0,1-.51,1A3.5,3.5,0,0,1,13.67,27.86Z"/><path class="cls-107" d="M91.53,45.24a5,5,0,0,1-1.29,1.22,2.22,2.22,0,0,1-1.85-.19c-.19-.71.46-.78.81-1.08a7.55,7.55,0,0,1,2-.24C91.31,44.93,91.55,44.94,91.53,45.24Z"/><path class="cls-108" d="M49,25a13.73,13.73,0,0,0-3.39,0,2.71,2.71,0,0,1-.27-1c1.07,0,2.15-.12,3.23,0a.61.61,0,0,1,.4.32.87.87,0,0,1,.11.61Z"/><path class="cls-50" d="M81.08,27.87a24.59,24.59,0,0,1,4.54,0c.14.23.22.44-.16.51A19.26,19.26,0,0,1,81,28.17C81.06,28.07,81.07,28,81.08,27.87Z"/><path class="cls-109" d="M62.27,12.69l4.3,0c.29.13.34.44.51.67a26.93,26.93,0,0,0-4.4,0,.56.56,0,0,1-.44-.33A.33.33,0,0,1,62.27,12.69Z"/><path class="cls-110" d="M9.12,44.76a1.44,1.44,0,0,0-1.43-.19.81.81,0,0,1-1.1-.49c0-.18,0-.38.17-.5.46.43,1,0,1.48,0a6.53,6.53,0,0,0,1.4.16C9.77,44.26,9.66,44.62,9.12,44.76Z"/><path class="cls-111" d="M81.1,36.66a10.06,10.06,0,0,0-2.39-.08c-.14,0-.27.05-.35-.11a1.15,1.15,0,0,1,.18-.67,12.85,12.85,0,0,1,3.22,0A2,2,0,0,1,81.1,36.66Z"/><path class="cls-112" d="M37.33,18.41a25.84,25.84,0,0,0,3.52,0,3.12,3.12,0,0,1-.79.87,14.33,14.33,0,0,1-3.14.1A.81.81,0,0,1,37.33,18.41Z"/><path class="cls-113" d="M16.21,27c-.27-.57-.85-.41-1.28-.46a.45.45,0,0,1-.42-.23,4.06,4.06,0,0,1,.69-1.17c.22.54.68.25,1,.23a.86.86,0,0,1,.69.12c.19.25,0,.48,0,.72S16.72,27,16.21,27Z"/><path class="cls-90" d="M18.07,23.47c-.47-.32-1-.1-1.44-.06a.23.23,0,0,1-.26-.13,6.1,6.1,0,0,1,1-1.52c.52.15,1.06,0,1.57.18a.39.39,0,0,1,.07.23C18.82,22.69,18.71,23.27,18.07,23.47Z"/><path class="cls-18" d="M53.71,39.35c-1.22.24-2.45-.15-3.67.06-.22,0-.37,0-.39.28a1.73,1.73,0,0,1-.32-.85,29.58,29.58,0,0,1,4.21,0A.4.4,0,0,1,53.71,39.35Z"/><path class="cls-114" d="M100.84,32.77a5.13,5.13,0,0,1-.85,1.35c-.51.19-1,.53-1.49,0a2.47,2.47,0,0,1,.85-1.68C99.86,32.43,100.5,32.05,100.84,32.77Z"/><path class="cls-115" d="M8.43,39.17a3.28,3.28,0,0,0,1.91.12,1.81,1.81,0,0,1,1.15.24.63.63,0,0,1,.14.63.34.34,0,0,1-.29.24c0-.3-.21-.25-.46-.27A23.69,23.69,0,0,0,8.09,40,1.24,1.24,0,0,1,8.43,39.17Z"/><path class="cls-116" d="M107.43,21.79a3.13,3.13,0,0,1-.68,1.19,6.65,6.65,0,0,0-2,0c-.1,0-.19-.09-.25-.19a1.43,1.43,0,0,1,.14-.84.75.75,0,0,1,.34-.4,1.27,1.27,0,0,1,.28,0C106,21.66,106.74,21.33,107.43,21.79Z"/><path class="cls-117" d="M104.37,27a5,5,0,0,1-.83,1.38c-.35-.18-.69.09-1.06,0s-.53-.07-.6-.41a2.31,2.31,0,0,1,.6-1.35.43.43,0,0,1,.25,0,3.17,3.17,0,0,0,1,.06C104,26.67,104.32,26.58,104.37,27Z"/><path class="cls-28" d="M19,19.4c.35.33,1.06-.21,1.23.53a1.32,1.32,0,0,1-.77,1.28c-.5-.08-1.16.31-1.44-.46A5.42,5.42,0,0,1,19,19.4Z"/><path class="cls-76" d="M46.1,17.4a9.88,9.88,0,0,1-2.49,0l-.32-1a4.88,4.88,0,0,1,2.31-.06,1.45,1.45,0,0,1,.57.86A.34.34,0,0,1,46.1,17.4Z"/><path class="cls-118" d="M104.53,22.8c.61,0,1.23,0,1.84-.07.22,0,.3.09.38.25-.17.29-.34.57-.5.86a4,4,0,0,1-2.23,0,.44.44,0,0,1-.09-.33,1.83,1.83,0,0,1,.38-.73A.18.18,0,0,1,104.53,22.8Z"/><path class="cls-119" d="M102,28a1.36,1.36,0,0,0,1.34.09c.37-.15.1.21.2.29a6.25,6.25,0,0,1-.83,1.38c-.5-.28-1.08,0-1.59-.22a.43.43,0,0,1-.05-.35C101.32,28.77,101.42,28.21,102,28Z"/><path class="cls-104" d="M77.86,37.83c.6-.24,1.26,0,1.87-.22.27-.08.29.17.32.36a3.28,3.28,0,0,1-.81.89,6.67,6.67,0,0,1-1.07.19c-.29,0-.63.09-.65-.38Z"/><path class="cls-120" d="M70,19.58a.79.79,0,0,1,.17.51c-1,.55-2.14.21-3.21.26a2,2,0,0,1-1.22-.22.42.42,0,0,1,.08-.65A9.51,9.51,0,0,1,70,19.58Z"/><path class="cls-121" d="M45.59,16.38a9.32,9.32,0,0,1-2.3,0l-.06-.16-.15-.35c.36-.35.63-.82,1.17-.95a2.43,2.43,0,0,1,.71.15,1.58,1.58,0,0,1,.71,1.21Z"/><path class="cls-122" d="M104,23.81l2.21,0a3.52,3.52,0,0,1-.68,1.17c-.7,0-1.43.25-2-.4C103.6,24.27,103.56,23.89,104,23.81Z"/><path class="cls-123" d="M13.67,27.86a11.7,11.7,0,0,1,2,.17.7.7,0,0,1-.5,1A3.62,3.62,0,0,0,13.39,29c-.16.05-.2-.14-.22-.28A2.3,2.3,0,0,1,13.67,27.86Z"/><path class="cls-84" d="M70,19.58l-4.27,0c-.35-.07-.29-.28-.18-.51h4.25A.64.64,0,0,1,70,19.58Z"/><path class="cls-124" d="M104.37,27a.91.91,0,0,0-1-.07.49.49,0,0,1-.68-.27c-.21-.48.07-.77.39-1.05a8.19,8.19,0,0,1,1.64,0c.15,0,.44-.09.35.26A3.8,3.8,0,0,1,104.37,27Z"/><path class="cls-125" d="M65.86,20.1a27.67,27.67,0,0,0,4.27,0l.27.68a27.93,27.93,0,0,0-2.89-.12,14.43,14.43,0,0,0-1.47,0,.16.16,0,0,1-.23,0A.38.38,0,0,1,65.86,20.1Z"/><path class="cls-126" d="M72.12,42.05a5.21,5.21,0,0,1,1.84-.2c.48,0,1,.31,1.46-.06.13-.1.25.41.56.27l.15.12,0,.22h-.32c-.77.68-1.68.21-2.52.3a2.61,2.61,0,0,0-1,.24A.63.63,0,0,1,72.12,42.05Z"/><path class="cls-127" d="M91.53,45.24c-.73-.26-1.46.1-2.19,0,0-.75.76-.87,1.18-1.27a.71.71,0,0,1,.24-.06q.49,0,1,.09c.27,0,.63.08.46.53A2,2,0,0,1,91.53,45.24Z"/><path class="cls-128" d="M73.77,33.77a19.21,19.21,0,0,0-3.94,0s0,.14-.08.22c-.28,0-.28-.14-.17-.34V33.1c1.35.1,2.71,0,4,.17Z"/><path class="cls-129" d="M101.16,29.55c.52.05,1.12-.42,1.55.23a3.66,3.66,0,0,1-.69,1.13,5,5,0,0,0-.87-.07c-.32,0-.63,0-.62-.48S100.66,29.6,101.16,29.55Z"/><path class="cls-130" d="M77.52,38.67a.56.56,0,0,0,.74.18,1.24,1.24,0,0,1,1,0,8.27,8.27,0,0,1-1.37,1.52c-.22-.28-.75.2-.86-.35A4.65,4.65,0,0,1,77.52,38.67Z"/><path class="cls-131" d="M100.66,30.4c.08.41.4.29.64.26a.74.74,0,0,1,.72.25,3.12,3.12,0,0,1-.65,1c-.53.13-1.08.35-1.51-.22C100,31.17,100,30.6,100.66,30.4Z"/><path class="cls-132" d="M105.06,25.86c-.6-.3-1.27.08-1.87-.2-.23-.42.07-.7.27-1a.21.21,0,0,1,.23,0l1.88.37A2.3,2.3,0,0,1,105.06,25.86Z"/><path class="cls-133" d="M37,19.42a6.92,6.92,0,0,1,3.07-.15l-.55.66a20.12,20.12,0,0,0-2.69,0C36.66,19.69,36.76,19.53,37,19.42Z"/><path class="cls-134" d="M35,25.67l.35-1.52a1.22,1.22,0,0,1,.06-.68.92.92,0,0,1,.36-.44c.43-.13.86-.28,1.25.1A20.66,20.66,0,0,1,35,25.67Z"/><path class="cls-135" d="M36.32,21.28c.59-.07,1.2.17,1.76-.26.2-.16.11.25.28.27a2.75,2.75,0,0,1-.83,1,1.12,1.12,0,0,1-1.42-.09A.66.66,0,0,1,36.32,21.28Z"/><path class="cls-136" d="M48.64,24.15c-1.1-.12-2.24.26-3.33-.16l-.06-.34a15.85,15.85,0,0,1,3.23,0c.24,0,.26.13.28.3A.45.45,0,0,1,48.64,24.15Z"/><path class="cls-133" d="M107.43,21.79c-.79-.09-1.61.19-2.38-.18-.12-.23-.21-.45.17-.5a6.12,6.12,0,0,1,2.52.15Z"/><path class="cls-60" d="M18.06,20.75c.35.51.93.17,1.37.36.16.49,0,.79-.51.85s-1.08.31-1.54-.2A3.16,3.16,0,0,1,18.06,20.75Z"/><path class="cls-35" d="M99.45,35l-1,1.41a1.86,1.86,0,0,1-1.28-.3,1.18,1.18,0,0,1,.71-1.21C98.43,35,99,34.62,99.45,35Z"/><path class="cls-70" d="M92.21,44.55a.38.38,0,0,0-.54-.35c-.36.13-.65-.09-1-.12,0-.56.38-.73.81-.87.54,0,1.18-.34,1.56.37Z"/><path class="cls-137" d="M88.33,46.11a9.58,9.58,0,0,0,1.91.35c-.36.19-.47.66-.9.78-.25-.51-.72-.27-1.1-.32a5.82,5.82,0,0,0-.93,0A1,1,0,0,1,88.33,46.11Z"/><path class="cls-18" d="M99.45,35c-.5-.08-1,.38-1.49,0a.83.83,0,0,1,.67-1c.41.42.91.05,1.36.18Z"/><path class="cls-3" d="M77,40c.18.37.78-.27.86.35a11.67,11.67,0,0,1-1.7,1.67Z"/><path class="cls-138" d="M46.94,19.42a10.27,10.27,0,0,1-2.82-.16l0-.18a4.7,4.7,0,0,1,2.68,0C46.93,19.15,47,19.24,46.94,19.42Z"/><path class="cls-139" d="M33.27,30.57c-.47,0-.77-.37-1.18-.51a.23.23,0,0,1-.06-.22c.19-.35.26-.8.79-.82.28.26.8.34.64.91A1.12,1.12,0,0,1,33.27,30.57Z"/><path class="cls-73" d="M36.13,22.12c.43.27.93.13,1.4.19-.07.35-.38.54-.56.82a2.52,2.52,0,0,0-1.19,0,.49.49,0,0,1-.1-.45,1.52,1.52,0,0,1,.23-.54A.17.17,0,0,1,36.13,22.12Z"/><path class="cls-140" d="M100,31.74c.44.23.94,0,1.39.19a1.91,1.91,0,0,1-.53.84c-.35-.5-1,0-1.36-.34a.24.24,0,0,1-.07-.21C99.53,32,99.61,31.68,100,31.74Z"/><path class="cls-141" d="M33.46,29.93c-.05-.44-.66-.43-.69-.88a.24.24,0,0,1-.05-.23c.19-.33.33-.72.82-.68a.49.49,0,0,1,.24.75A2.12,2.12,0,0,1,33.46,29.93Z"/><path class="cls-56" d="M93.06,43.58c-.53-.36-1.13-.09-1.69-.18-.09-.3.1-.42.34-.5l1.91,0A1.34,1.34,0,0,1,93.06,43.58Z"/><path class="cls-91" d="M109.94,6.93l-.16,1h-.17c-.37-.05-.87.25-1-.38l.18-.63Z"/><path class="cls-23" d="M97.28,36c.32.4.92-.07,1.22.4a2.14,2.14,0,0,1-.54.79c-.25-.2-.15-1-.82-.45l-.2-.23.17-.51A.11.11,0,0,1,97.28,36Z"/><path class="cls-142" d="M33.78,28.89c0-.29,0-.56-.34-.69a.1.1,0,0,1,0-.11s0-.06,0-.06c.4-.39.51-1,1-1.35A9,9,0,0,1,33.78,28.89Z"/><path class="cls-143" d="M80.23,50.13c.16-.24.53,0,.67-.31a.35.35,0,0,1,.51,0c.21.3.62,0,.83.29Z"/><path class="cls-107" d="M60.47,50.13a1.14,1.14,0,0,1,1.17,0Z"/><path class="cls-144" d="M15.53,51.19H9.25a1,1,0,0,1-.17-.79,28.08,28.08,0,0,1,.68-3.77c.27-.39.46-.83,1.06-.27a.89.89,0,0,0,1.24-.27,1.61,1.61,0,0,1,1.81-.51,2.33,2.33,0,0,0,2-.49c.06,0,.15-.17.18-.15.74.56,1.27-.19,1.89-.28.25,0,.45,0,.54.28a.37.37,0,0,1-.11.33A47,47,0,0,0,15.53,51.19Z"/><path class="cls-9" d="M18.41,45.26v-.33a2.89,2.89,0,0,1,.25-.77.79.79,0,0,1,.45-.39c1.37,0,2.74.14,4.11.11a.51.51,0,0,1,.44.2A4,4,0,0,1,23,45.43c-.77-.45-1.61-.1-2.42-.2A13.92,13.92,0,0,0,18.41,45.26Z"/><path class="cls-145" d="M10,46.44a42.47,42.47,0,0,0-.75,4.74H5.75l.34-.83a8.86,8.86,0,0,0,1-1.86,4.47,4.47,0,0,0,.66-1.19A3.88,3.88,0,0,0,8.46,46a3.76,3.76,0,0,0,.66-1.21,2.2,2.2,0,0,0,.52-1l1-1.88.33-.37a.39.39,0,0,1,.14.21,4.51,4.51,0,0,1-.11.89c-.09.5-.26,1-.32,1.49s-.26,1-.34,1.5A3.54,3.54,0,0,1,10,46.44Z"/><path class="cls-146" d="M26.85,38.5c-.11.29-.23.57-.34.85l-.32.18c-1.23-.1-2.45-.09-3.68-.07-.35,0-.73.08-1-.3-.09-.41.16-.71.31-1,.12-.17.24-.37.51-.31a8.48,8.48,0,0,0,3,.17c.45,0,.88.08,1.32.13C26.89,38.13,27,38.26,26.85,38.5Z"/><path class="cls-147" d="M25.84,40.2l-.5.85a7,7,0,0,1-2.33.07c-.54,0-1.07-.07-1.6,0a.62.62,0,0,1-.75-.39,1.35,1.35,0,0,1,.38-1,.46.46,0,0,1,.23-.06,17.57,17.57,0,0,0,3.62.16,3.75,3.75,0,0,1,.67,0C25.74,39.85,25.94,39.93,25.84,40.2Z"/><path class="cls-148" d="M24.84,41.9a1,1,0,0,1-.34.66,1,1,0,0,1-.62.24,25.93,25.93,0,0,1-3.94-.08c-.61-.62-.08-1,.32-1.37,1.25.16,2.51,0,3.76.1C24.34,41.48,24.79,41.36,24.84,41.9Z"/><path class="cls-149" d="M19.76,42.56H24.5a2,2,0,0,1-.52,1c-1.33-.16-2.67,0-4-.1-.24,0-.52.12-.66-.2a.59.59,0,0,1,0-.37C19.41,42.72,19.48,42.5,19.76,42.56Z"/><path class="cls-150" d="M19.42,43.24a19.33,19.33,0,0,0,3.95-.05c.13,0,.56,0,.61.38l-.32.51a36.84,36.84,0,0,1-4.58-.17C18.92,43.55,19,43.3,19.42,43.24Z"/><path class="cls-126" d="M25.84,40.2c-.06-.13-.13-.26-.29-.26-1.05,0-2.11.06-3.16.07-.39,0-.85.18-1.11-.32-.17-.35,0-.5.32-.51a24.3,24.3,0,0,0,3.41.07c.42,0,.85-.09,1.18.28A1,1,0,0,1,25.84,40.2Z"/><path class="cls-151" d="M24.84,41.9c-.88-.53-1.84-.25-2.78-.24a2.88,2.88,0,0,1-1.63-.29c-.19-.26-.05-.47.11-.67a.19.19,0,0,1,.23,0c.61.51,1.33.08,2,.21a16.82,16.82,0,0,0,2.57.14A1.25,1.25,0,0,1,24.84,41.9Z"/><path class="cls-152" d="M94.75,35l-.5.68h-.12a16.44,16.44,0,0,0-3.71-.1,9.49,9.49,0,0,0-1.41,0,1.68,1.68,0,0,0-1,0c-1.35-.2-2.71.2-4.06-.09-.21,0-.45,0-.63-.17l.66-1.86a1.44,1.44,0,0,1,.73-.16c3.12-.12,6.24.06,9.36-.05a1.73,1.73,0,0,1,1.27.33A1.41,1.41,0,0,1,94.75,35Z"/><path class="cls-153" d="M92.55,39c-.46.43-.46,1.15-1,1.53a20.76,20.76,0,0,1-3.25.07c-1.86,0-3.71-.08-5.56,0a1.41,1.41,0,0,1-1.19-.25A2.77,2.77,0,0,1,82.07,39c.13-.24.21-.47.59-.45.86,0,1.73,0,2.59,0,1.16,0,2.32-.13,3.48,0,.1.14.21.14.32,0,1,0,1.93,0,2.9,0,.18.14.51-.07.61.26Z"/><path class="cls-154" d="M78.36,47.29,78,47v-.19c.34-.44.69-.88,1-1.33a1.53,1.53,0,0,1,1-.27c1.9,0,3.8,0,5.69,0,.37,0,.73-.06,1.09,0s1-.13,1.23.46c-.09.62-.67.86-1,1.27-.34.16-.47.64-.93.62H86a3.89,3.89,0,0,0-1.71-.09,4.93,4.93,0,0,1-2.09,0,5.41,5.41,0,0,0-1.92,0A11.93,11.93,0,0,0,78.36,47.29Z"/><path class="cls-155" d="M81.55,40.36c2.23,0,4.46-.07,6.69,0a13.12,13.12,0,0,1,3.31.16c-.07.22-.14.43-.2.65a1.41,1.41,0,0,1-.82,1.09,14.52,14.52,0,0,1-2.34-.22c-.79-.17-1.59.36-2.3-.18-.42.61-1.06.27-1.5.19-1-.17-2,.41-3,0-.28-.12-.42.3-.7.16A9.38,9.38,0,0,1,81.55,40.36Z"/><path class="cls-156" d="M88,45.61c-.27-.46-.77-.32-1.11-.31-2.28.1-4.56,0-6.85.06-.33,0-.65,0-1,.07l1-1.69a29.2,29.2,0,0,1,3.1-.11c1,0,2.07,0,3.1,0a8.12,8.12,0,0,0,2.36.09.53.53,0,0,1,.69.33A1.86,1.86,0,0,1,88,45.61Z"/><path class="cls-157" d="M93.74,36.65a2,2,0,0,1-.51,1c-.45.22-1,.06-1.4.28a2.29,2.29,0,0,1-1.55,0,3.93,3.93,0,0,0-2.07,0c-1.28.17-2.54-.11-3.81,0-.28,0-.56,0-.82.11a.57.57,0,0,1-.22.07,1.08,1.08,0,0,1-.79-.41,3.51,3.51,0,0,1,.36-1.18,16.29,16.29,0,0,1,3.56-.15,20.88,20.88,0,0,0,4.4-.06c.9-.14,1.77.2,2.66.11A.18.18,0,0,1,93.74,36.65Z"/><path class="cls-158" d="M89.18,44.1c-.18-.27-.43-.17-.68-.12-1.15.2-2.27-.23-3.41-.15a36,36,0,0,0-3.75,0,4.48,4.48,0,0,1-1.3-.11l.37-.84a1.28,1.28,0,0,1,.78-.26c2.75-.09,5.51,0,8.26,0a.69.69,0,0,1,.61.19c.17.38-.1.63-.26.91S89.49,44.16,89.18,44.1Z"/><path class="cls-159" d="M82.57,37.66l.86.34a.13.13,0,0,1,.09.1c.06,0,0,0,0-.06s0,0-.06,0c0-.43.39-.34.65-.33,1,0,1.94.06,2.91.12a6,6,0,0,0,1.85-.11c1.07-.29,2,.42,3,.15.12.27.38.51.17.85a8.18,8.18,0,0,1-3,0c-.06-.12-.12-.19-.17,0a36.25,36.25,0,0,1-4.16.16,8.74,8.74,0,0,1-2-.09c-.32-.09-.44.13-.63.26A2.62,2.62,0,0,1,82.57,37.66Z"/><path class="cls-160" d="M93.74,36.65a19.4,19.4,0,0,0-2.73-.2c-1.09.07-2.17.09-3.26.12-1.42,0-2.85-.39-4.26.06-.16,0-.37-.09-.56-.15a1.69,1.69,0,0,1,.33-.85,20.81,20.81,0,0,1,3.35-.09A4,4,0,0,1,88,35.47c.34-.14.68-.5,1,0a38,38,0,0,0,4.53,0,1.36,1.36,0,0,1,.7.16h0A2,2,0,0,1,93.74,36.65Z"/><path class="cls-161" d="M90,42.9c-1.5,0-3,0-4.52,0-1.7,0-3.41,0-5.11,0,.11-.23.22-.45.32-.68.31-.27.53-.76,1-.21.13.14.57.11.8,0,.93-.43,1.91.15,2.75-.09.53-.15,1.15.4,1.6-.24a.61.61,0,0,1,.74.14.46.46,0,0,0,.6.14,2.68,2.68,0,0,1,2.26.27C90.59,42.62,90.48,42.88,90,42.9Z"/><path class="cls-162" d="M95.26,33.61a24.06,24.06,0,0,0-4.8-.12c-2.17-.05-4.34,0-6.52-.05l0-.21c.07-.2.14-.4.22-.6l.14,0c.82-.07,1.64,0,2.46-.08a24.19,24.19,0,0,1,3.07,0c1.2,0,2.43-.34,3.63.14a2.31,2.31,0,0,0,1.25,0,.88.88,0,0,1,1,.3C95.7,33.29,95.68,33.58,95.26,33.61Z"/><path class="cls-163" d="M88,35.47a8.72,8.72,0,0,1-3.45.18c-.43,0-.86.33-1.28,0,0-.11,0-.22,0-.33C84.85,35.51,86.43,35.11,88,35.47Z"/><path class="cls-164" d="M71.44,46.11a15.81,15.81,0,0,1-2.36,1.52c-1.68-.09-3.35,0-5-.1a1.62,1.62,0,0,0-.73.15,2.84,2.84,0,0,1-1.61-1.56.52.52,0,0,1,.68-.45,21,21,0,0,0,3.63.06c1.78,0,3.56,0,5.34.11l.09.08Z"/><path class="cls-121" d="M72.12,42.05a1.65,1.65,0,0,0,.33.86,2.89,2.89,0,0,1,.68,1.85,4.65,4.65,0,0,1-1.67,1.16h0a4.07,4.07,0,0,1-.86-.9c-.26-.42-.55-.81-.79-1.24-.13-.25-.3-.46-.42-.71a.51.51,0,0,1,0-.57c.6-.33,1.42.06,1.94-.6.07-.09.36.23.6.13Z"/><path class="cls-165" d="M73.13,44.76a6.43,6.43,0,0,1-.68-1.85c.16-.38.37-.46.84-.42a9.78,9.78,0,0,1,1.61.17c.14,0,.51-.5.94-.26A16.05,16.05,0,0,1,73.13,44.76Z"/><path class="cls-53" d="M49.31,26l-.16-.51a7.68,7.68,0,0,1,3,.21,2.36,2.36,0,0,1,.63,1.16c.73,2,1.52,4,2.26,6,.12.3.22.61.35.91.21.56.45,1.11.65,1.67a3.86,3.86,0,0,1,.17.58.73.73,0,0,1,0,.36.32.32,0,0,1-.5.14c-.27-.18-.47-.2-.69.1s-.46.17-.71.11a4.51,4.51,0,0,0-1.42-.06h-.17a3.3,3.3,0,0,0-.5-1.52c-.18-.5-.15-1.08-.51-1.52l-.51-1.35L49.52,26.9C49.43,26.61,49.38,26.31,49.31,26Z"/><path class="cls-166" d="M97.79,9.29a3.71,3.71,0,0,0,2.68-.22.33.33,0,0,1,.39,0,1.94,1.94,0,0,0,2.23,0c.14-.09.27,0,.4,0a11.66,11.66,0,0,0,2.94.3c.26,0,.49,0,.29-.34-.07-.12-.34-.18-.09-.36a.32.32,0,0,1,.45.09c.17.19.39.34.33.64a2.05,2.05,0,0,1-.36,1.22q-.19.34-.36.72a12.63,12.63,0,0,0-.68,1.19,4.49,4.49,0,0,1-.6,1,.59.59,0,0,1-.23,0c-.39-.34-.78-.52-1.26-.12a1.39,1.39,0,0,1-1.22.14,1.46,1.46,0,0,0-1.56.56c-.23.29-.49.58-.92.42s-.15-.6-.33-1c-.17.52-.35.91-.92,1a2,2,0,0,1-1.66-.38c-.51-.39-1.08-.69-1.29-1.36a.74.74,0,0,1,0-.36c.38-.8.71-1.63,1.13-2.41C97.35,9.83,97.41,9.43,97.79,9.29Z"/><path class="cls-57" d="M97.79,9.29a2.78,2.78,0,0,1-.51.84,6.65,6.65,0,0,1-2.81,0c-.07,0-.1-.12-.06-.21a10.32,10.32,0,0,1,4-2Z"/><path class="cls-59" d="M108.58,7.56c.23.44.82-.11,1,.38a5.72,5.72,0,0,1-.5,2c-.36,0-.71-.09-1.06-.14s-.53,0-.49-.4A7.38,7.38,0,0,1,108.58,7.56Z"/><path class="cls-36" d="M107.56,9.43c.25.32.61.16.92.19s.58,0,.63.35v.16a.37.37,0,0,1-.17.34c-.69,0-1.36.19-2,.17.18-.41.35-.82.52-1.22Z"/><path class="cls-144" d="M65.87,49.15l-.39,0a2.48,2.48,0,0,1-1.6-.83c-.18-.16-.39-.37-.11-.64a27.93,27.93,0,0,1,4.48-.05.29.29,0,0,1,.32.31Z"/><path class="cls-167" d="M68.57,48c-.46-.33-1-.16-1.47-.15a15.16,15.16,0,0,0-3.43.12c-.28.09-.36,0-.34-.3s.3-.34.56-.33l4.8.09a.37.37,0,0,1,.39.24Z"/><path class="cls-47" d="M94.41,10l2.87.17A12.47,12.47,0,0,1,96.1,12.5a.83.83,0,0,1-.77.27,16.79,16.79,0,0,0-2.84-.14c-.24,0-.6.17-.62-.3a1,1,0,0,0,0-.17,1.75,1.75,0,0,0,.67-.68A6,6,0,0,1,94.41,10Z"/><path class="cls-168" d="M88.5,18.75c.19-.13.16-.32.17-.51a1.66,1.66,0,0,0,.34-1c.45-.62.47-1.46,1-2a29,29,0,0,0,3.73,0c.32,0,.68-.06.9.28a.53.53,0,0,1,0,.41,34.64,34.64,0,0,1-1.87,3.44.46.46,0,0,1-.56.25,13.74,13.74,0,0,0-2.64-.12c-.38,0-.78.06-1.1-.25Z"/><path class="cls-169" d="M94.58,15.54a23.37,23.37,0,0,0-2.9,0c-.56,0-1.18.17-1.66-.31l.34-.85c.55-.63.8-1.51,1.51-2,.62.29,1.28,0,1.91.14s1.29-.22,1.9.21c.08.06.09-.53.42-.18v.33a.76.76,0,0,1-.09.42c-.1.2-.2.4-.29.6A13,13,0,0,1,95.13,15C95,15.25,95,15.59,94.58,15.54Z"/><path class="cls-47" d="M95.26,33.61a1,1,0,0,0,.34-.67A2.14,2.14,0,0,1,96,31.85c.12-.16.23-.32.46-.33a8.15,8.15,0,0,0,2.2.13c.48,0,.79.09.84.61v.17a6.43,6.43,0,0,0-.85,1.51A3.6,3.6,0,0,0,98,35a3.66,3.66,0,0,0-.68,1h-.17c-.5-.69-1.32-.54-2-.55s-.38-.22-.4-.46Z"/><path class="cls-159" d="M92.05,38.68c0-.31-.43-.5-.17-.85a1.57,1.57,0,0,1,1.35-.17,5.35,5.35,0,0,1-.67,1.19Z"/><path class="cls-170" d="M29.25,26.56a2.58,2.58,0,0,0-.54,1,1.42,1.42,0,0,1-.54.92.76.76,0,0,1-.26,0c-2.15.3-4.27.73-6.4,1.1a40.32,40.32,0,0,1-4.75.71c-.29-.79.29-1.27.67-1.83a5.08,5.08,0,0,1,2.14-.52,28.14,28.14,0,0,0,2.9-.59c1.65-.22,3.27-.63,4.92-.81a3.52,3.52,0,0,0,1.28-.26C28.89,26.16,29.24,26.09,29.25,26.56Z"/><path class="cls-171" d="M29.25,26.56c-.1-.17-.3-.28-.42-.16-.77.74-1.8.27-2.69.58a9.65,9.65,0,0,1-2.66.52c-.87,0-1.66.26-2.49.35-.5.06-1,.45-1.35.38a2.42,2.42,0,0,0-1.31,0c-.27.07-.47.32-.76.28a2.55,2.55,0,0,1,.94-2.09,11,11,0,0,0,2.42-.37c.57-.12,1.19.15,1.83-.1a32.22,32.22,0,0,1,3.16-.7,10.58,10.58,0,0,1,3-.38c.31,0,.62,0,.93,0s.47,0,.43.33v.17Z"/><path class="cls-18" d="M28.17,28.35a1.9,1.9,0,0,1,.54-.82c1,.64,2.15.07,3.22.23.51.08,1-.05,1.51.27v.17l-.67.68c-.56-.34-1.17-.09-1.73-.07-.8,0-1.6,0-2.4.05C28.29,28.88,28.11,28.72,28.17,28.35Z"/><path class="cls-53" d="M66.72,23.14l.16.17c.12.33.09.72.34,1a7.47,7.47,0,0,0,.51,2c0,.48.28.88.33,1.35l.51,1.86.34,1c-.07.13-.15.26-.3.26a19,19,0,0,1-3.84,0,6,6,0,0,1-.87-2.25c-.46-1.48-1-2.93-1.4-4.42-.09-.36-.26-.71-.07-1.08a1.22,1.22,0,0,1,1.22-.33,6.14,6.14,0,0,0,2.05.1A1.26,1.26,0,0,1,66.72,23.14Z"/><path class="cls-16" d="M48.14,22.46a3.25,3.25,0,0,1-.36-1.17c.75-.54,1.58-.27,2.39-.29a.41.41,0,0,1,.27.21c.12.23.21.49.34.72a1.1,1.1,0,0,1,.16.56.41.41,0,0,1-.12.2,2.93,2.93,0,0,0-1,0A2,2,0,0,1,48.14,22.46Z"/><path class="cls-30" d="M48.65,24a.38.38,0,0,0-.17-.34v-.33a3,3,0,0,1,2.82.05c.14.24.26.48,0,.72A3.87,3.87,0,0,1,48.65,24Z"/><path class="cls-47" d="M51.17,23.31a8.43,8.43,0,0,0-2.7,0l-.33-.85c.88.27,1.81-.15,2.69.17a.56.56,0,0,1,.39.57A.37.37,0,0,0,51.17,23.31Z"/><path class="cls-32" d="M50.16,21.11l-2.38.18a1.29,1.29,0,0,1-.34-.69h0A9.59,9.59,0,0,1,50,20.53a.49.49,0,0,1,.27.37A.29.29,0,0,1,50.16,21.11Z"/><path class="cls-172" d="M62.66,24.15c.79,2,1.35,4.15,2,6.22,0,.13.11.25.17.37a.68.68,0,0,1,.19.84l.31,1c-.19.39-.51.42-.91.39a24.71,24.71,0,0,0-3.65,0c-.45,0-.89-.15-1.36-.16-1.52,0-3,.19-4.54.13-1-2.12-1.67-4.35-2.54-6.52-.08-.2-.21-.38-.31-.58a2.14,2.14,0,0,1-.36-.62c-.09-.28-.3-.51-.3-.83a.44.44,0,0,1,.2-.34A21.08,21.08,0,0,1,56,23.89c1.85,0,3.69,0,5.54,0A1.58,1.58,0,0,1,62.66,24.15Z"/><path class="cls-66" d="M69.58,33.61a.38.38,0,0,0,.17.34l.17.5a2.57,2.57,0,0,0,.34,1.36c0,.23-.08.49.17.67v.34a.76.76,0,0,1-.65.48A10.33,10.33,0,0,1,66.85,37a3.46,3.46,0,0,1-.63-1.31L66,35.17a5.71,5.71,0,0,1-.38-1.46l.06-.1A38.23,38.23,0,0,0,69.58,33.61Z"/><path class="cls-56" d="M54.89,32.93a1.48,1.48,0,0,1,.91-.29c1.42.09,2.86-.26,4.25,0s3-.15,4.48.22c.38.1.54-.2.82-.21.13.34.25.67.37,1h0a1,1,0,0,1-.84.23c-2,0-3.94.13-5.91,0-1.24-.07-2.48.06-3.71-.09A1.67,1.67,0,0,1,54.89,32.93Z"/><path class="cls-173" d="M65,31.58c-.06-.28-.13-.56-.19-.84a32.44,32.44,0,0,0,4.06-.17h.17c-.24.33-.13,1.08-.91.74,0,0,0,0-.08,0,0,.35,0,.62-.46.61s-.43-.49-.78-.58-.6-.07-.58.33-.15.45-.31.64c0-.38-.5-.15-.56-.46S65.32,31.42,65,31.58Z"/><path class="cls-174" d="M63.33,47.63a.53.53,0,0,0,.34.3,10,10,0,0,0,1.81,1.24,8,8,0,0,1-2.31.66c-.82.05-1.45-.49-2.2-.68a5.24,5.24,0,0,0-1.34-.85l-2.2-2.19-.69-1-.16-.34c.15-.67.58-.45,1-.31a2.81,2.81,0,0,0,1.81-.29c.23-.16.49-.1.73-.16a.45.45,0,0,1,.23,0c.39.3.56.79.91,1.13a2.49,2.49,0,0,1,.57,1A7.07,7.07,0,0,0,63.33,47.63Z"/><path class="cls-175" d="M18.92,22a1.11,1.11,0,0,0,.51-.85,3.4,3.4,0,0,0,.84-1.18,49.35,49.35,0,0,1,4.22-5.24c.36,0,.73-.48,1.07,0-.1.52-.54.83-.75,1.28-.8,1.22-1.65,2.4-2.35,3.68-.48.81-1,1.62-1.39,2.47a2.55,2.55,0,0,1-.6.89,2.73,2.73,0,0,1-.56.15c-.27.1-.42.58-.83.16A.77.77,0,0,1,19,22.28c0-.05,0-.1,0-.15Z"/><path class="cls-176" d="M25.49,14.69c-.33-.26-.67.27-1,0L25,14c1.2-1,2.26-2.14,3.54-3h.19c.17.3-.07.43-.23.6A20.9,20.9,0,0,0,26.35,14C26.11,14.24,25.91,14.6,25.49,14.69Z"/><path class="cls-144" d="M78.36,47.29c.22-.27.4-.81.78-.11,0,.06.28,0,.4,0,1.32-.42,2.67,0,4-.1a6.84,6.84,0,0,1,2.17,0c.44.1-.06.47.26.39-.23.42-.66.58-1,.84a14.09,14.09,0,0,1-3.67,0c-.76,0-1.5.12-2.24,0A3.66,3.66,0,0,1,78.36,47.29Z"/><path class="cls-177" d="M79,48.3A2.36,2.36,0,0,1,80.91,48c1.28.13,2.56.11,3.83.16.07,0,.14.07.21.11a8.52,8.52,0,0,1-3.54,1.54l-.51,0A4.66,4.66,0,0,1,79,48.3Z"/><path class="cls-166" d="M89.18,44.1l.49-.38c.31.06.67,0,.86.36-.26.53-1,.63-1.19,1.18l-1,.85a5.13,5.13,0,0,0-1,.84h-.16c-.18.07-.21,0-.17-.16l1-1.18A4.55,4.55,0,0,0,89.18,44.1Z"/><path class="cls-70" d="M87,46.79l.17.16c-.36.12-.46.77-1,.51Z"/><path class="cls-54" d="M27.37,37.5v.32h-.17A2.11,2.11,0,0,1,25.9,38c-.92,0-1.84,0-2.76,0-.27,0-.58.06-.74-.26a.43.43,0,0,1,.23-.56,21.84,21.84,0,0,1,4.2-.08C27.06,37.11,27.35,37.15,27.37,37.5Z"/><path class="cls-56" d="M22.45,37.65c.27.31.63.17.95.18,1.27,0,2.53,0,3.79,0-.11.23-.22.45-.34.67a1.91,1.91,0,0,0-1.31-.32,22,22,0,0,1-2.69,0c-.25,0-.52,0-.55-.33C22.24,37.68,22.31,37.64,22.45,37.65Z"/><path class="cls-53" d="M60.13,44.06c-.07.08-.17.25-.2.23-.78-.35-.44.28-.45.57-.07,0-.1,0-.12,0s-.26-.45-.44-.27c-.74.72-1.62-.43-2.34.21l-.35-.51a3.27,3.27,0,0,0-.66-1c-.12-.65-.65-1.09-.85-1.69,0-.3-.24-.44-.34-.68a4.8,4.8,0,0,0-.67-1.52l-.17-.51a7.64,7.64,0,0,1-.68-2.19c.47-.6,1-.14,1.55-.12.3,0,.52.17.56-.31s.34-.26.55-.1.25.52.57.16c.4,0,.43.42.6.66s.23.57.35.85.32.68.49,1,.22.46.34.69l.35.69c.16.33.32.66.5,1s.22.47.35.69c.27.45.52.9.82,1.34C60,43.47,60.24,43.72,60.13,44.06Z"/><path class="cls-70" d="M28.38,11.49c.1-.18.35-.25.35-.5.84-.45,1.53-1.1,2.37-1.56a29.07,29.07,0,0,1,3.71-1.5h2a6.42,6.42,0,0,1,2.73.82A12.49,12.49,0,0,1,41.27,10a1.42,1.42,0,0,1,.35.49.59.59,0,0,1,0,.23.52.52,0,0,1-1,0c-.48-.78-1-.8-1.84-.52a4.94,4.94,0,0,1-1.92,0c-.32,0-.83-.33-.89.38,0,.11-.18.1-.29.1a5.3,5.3,0,0,0-1.57.38,5.3,5.3,0,0,1-1.88.14c-.53,0-1,.48-1.53.13-.06,0-.08,0-.12.06-.13.23-.21.71-.49.55C29.54,11.63,28.82,12.08,28.38,11.49Z"/><path class="cls-154" d="M51.9,8a22.36,22.36,0,0,1,3.66,0c.19.43-.18.45-.41.53-.52.19-1,.35-1.55.56a12.48,12.48,0,0,0-2.68,1.16,12.39,12.39,0,0,0-2,1.18c-.36.2-.67.48-1,.71s-.72.53-1.06.82-.47.41-.79.47a6.13,6.13,0,0,1-1.87-2.29,8.86,8.86,0,0,1,2.62-1.65A12.81,12.81,0,0,1,51.9,8Z"/><path class="cls-178" d="M46.78,9.62c-.81.56-1.77.88-2.53,1.52a.23.23,0,0,1-.22,0c-.52-.47-1.24-.72-1.56-1.42a1.67,1.67,0,0,1,1.38-1.08,3.56,3.56,0,0,0,2.26-.37c.21-.13,0-.14,0-.21a.14.14,0,0,1,0-.18H48.3a.25.25,0,0,1-.06.42C47.64,8.65,47.35,9.3,46.78,9.62Z"/><path class="cls-151" d="M53.55,8.94a4.05,4.05,0,0,1,1.6-.64c.19-.07.39-.07.41-.33a11.63,11.63,0,0,1,2.32.67l.9.64c0,.46-.41.36-.67.4a26,26,0,0,1-3.42,0A1.53,1.53,0,0,1,53.55,8.94Z"/><path class="cls-179" d="M39.53,9a24.89,24.89,0,0,0-2.73-1h5.25c.07.44-.3.48-.56.57a1,1,0,0,0-.64.55C40.38,9.45,40,9.1,39.53,9Z"/><path class="cls-180" d="M46.78,9.62A11,11,0,0,1,48.3,7.94h3.6A31.9,31.9,0,0,0,46.78,9.62Z"/><path class="cls-181" d="M40.87,9c-.09-.46.33-.52.58-.64s.49-.1.6-.37h2.54c.18.28,0,.44-.22.49a19.29,19.29,0,0,0-2.35,1C41.61,9.3,41.07,9.58,40.87,9Z"/><path class="cls-182" d="M41.89,9.29a6.15,6.15,0,0,1,2.47-1c.17,0,.2-.17.23-.32h1.52v.18a4,4,0,0,1-2.2.67,2.64,2.64,0,0,0-1.35,1,.3.3,0,0,1-.34.06C42,9.73,41.78,9.61,41.89,9.29Z"/><path class="cls-22" d="M30.24,25.18a2.94,2.94,0,0,0-1.9,0c-.62.13-1.33,0-1.88.45a.22.22,0,0,1-.36-.18c0-.11-.14-.25-.2-.14-.6,1.07-1.73.33-2.53.75a4.46,4.46,0,0,1-1.17.28c-.31.06-.67.43-.95-.1,0-.06-.38,0-.55.08s0,.66-.27.06c0-.1-.1-.11-.19-.06a1.56,1.56,0,0,1-1.65.19.37.37,0,0,1-.1-.22,2.61,2.61,0,0,1,.9-1.4c2.37-.35,4.72-.84,7.09-1.21,1.59-.25,3.15-.62,4.74-.81.22,0,.46-.07.6.18a.62.62,0,0,1-.07.46.74.74,0,0,1-.51.46Z"/><path class="cls-183" d="M31.24,24l.37-.5a6.7,6.7,0,0,1,3.89,0c0,.23,0,.5-.2.67l-3.69,0A.39.39,0,0,1,31.24,24Z"/><path class="cls-126" d="M60.92,11l.56.8c.14.64-.38.57-.71.59-1.05.06-2.1,0-3.15,0a.82.82,0,0,1-.55-.15,1.08,1.08,0,0,1-.42-.81.55.55,0,0,1,.61-.46,20.81,20.81,0,0,1,3.53,0Z"/><path class="cls-165" d="M54.72,9.63c1-.24,2,0,3-.11.34,0,.74.07,1-.24H59l1,.87c-.32.56-.88.4-1.37.44a10.54,10.54,0,0,0-2.63.1.82.82,0,0,1-.63-.29C55.13,10.14,54.7,10.05,54.72,9.63Z"/><path class="cls-184" d="M55.9,10.64c.16-.34.43-.32.77-.3a7.53,7.53,0,0,0,3.27-.18,2.62,2.62,0,0,1,.85.84,21,21,0,0,1-2.63.19c-.47.07-1-.23-1.42.31-.16.07-.29,0-.42-.11S55.81,11,55.9,10.64Z"/><path class="cls-7" d="M88.49,19.25h3.17c.28,0,.65-.13.73.33.27.47-.16.73-.31,1.08-.1.16-.18.33-.27.51-.27.6-.71,1.1-1,1.71C89.57,25,88.32,27.06,87,29.09c-.31.44-.61.89-.89,1.35s-.63,1-1,1.4c-.23.25-.34.64-.79.6v-.35a6.29,6.29,0,0,0,.52-1.68c.18-.13.15-.32.16-.5a3.83,3.83,0,0,0,.5-1.53c.18-.13.17-.32.16-.51a1.09,1.09,0,0,0,.19-.67,1.77,1.77,0,0,0,.33-1c.19-.12.16-.32.17-.5.31-.46.25-1,.49-1.53a1.06,1.06,0,0,0,.18-.67,1.71,1.71,0,0,0,.34-1,1.59,1.59,0,0,0,.33-1A2.87,2.87,0,0,0,88,20.27c.2-.12.17-.32.17-.51Z"/><path class="cls-185" d="M105.89,12.49a3.2,3.2,0,0,1,.64-1.19c.7-.45,1.51-.12,2.24-.32v.5c-.3.34-.15.87-.5,1.19a12.09,12.09,0,0,1-2.33,0C105.86,12.69,105.84,12.57,105.89,12.49Z"/><path class="cls-75" d="M108.77,11a.75.75,0,0,1-.7.29,8,8,0,0,0-1.54,0,1.2,1.2,0,0,1,.36-.66,2.29,2.29,0,0,1,2-.17C108.93,10.66,109,10.86,108.77,11Z"/><path class="cls-186" d="M90.53,44.08c-.27-.16-.68,0-.86-.36.12-.27.25-.54.37-.82.28-.14.36-.42.49-.67l.82-1a2.3,2.3,0,0,0,1.37.52l-1,1.18-.34.5a1.85,1.85,0,0,0-.68.68Z"/><path class="cls-23" d="M66.9,37c.39,0,.78.25,1.16-.12s.27.34.6.31a3.29,3.29,0,0,0,1.77-.36l.17.17a6.33,6.33,0,0,0,.5,1.86,1.15,1.15,0,0,0,.18.67c.11.51.22,1,.34,1.52a6.93,6.93,0,0,1-3,0,.79.79,0,0,1-.28-.23,1.25,1.25,0,0,1-.22-.41,7.75,7.75,0,0,0-.37-.83c-.15-.39-.3-.77-.47-1.15s-.21-.55-.31-.82a1.19,1.19,0,0,1-.09-.53Z"/><path class="cls-187" d="M105.89,12.49c.78.26,1.61-.22,2.37.18V13l-.17.51-.17.17a9.26,9.26,0,0,0-2.41.05c-.1,0-.16-.11-.13-.24A2.38,2.38,0,0,1,105.89,12.49Z"/><path class="cls-186" d="M27.37,37.5c-.33-.32-.75-.16-1.12-.17-1.21,0-2.42,0-3.63,0-.17-.59.24-.92.6-1.27,1.34,0,2.67-.06,4,0,.31,0,.76-.06.81.47C27.82,36.82,27.76,37.27,27.37,37.5Z"/><path class="cls-16" d="M28,36.48c-.71-.53-1.53-.23-2.3-.26a13.28,13.28,0,0,1-2.44-.08c-.22-.39,0-.63.26-.89a1.13,1.13,0,0,1,.21-.12c.9-.35,1.82,0,2.74-.08.49,0,1,.06,1.5,0,.27,0,.57-.08.7.27-.11.28-.22.56-.34.84Z"/><path class="cls-188" d="M28.71,35.3c-1.09,0-2.18-.07-3.28-.08a3.33,3.33,0,0,0-1.63.07c-.17-.54.17-.79.58-1,1.33-.1,2.67-.06,4-.09.3,0,.65,0,.67.43A.93.93,0,0,1,28.71,35.3Z"/><path class="cls-30" d="M29.05,34.63a.62.62,0,0,0-.58-.24c-1.39,0-2.78,0-4.17.06a.69.69,0,0,1,.28-.92.75.75,0,0,1,.26-.05c1.2.06,2.41-.06,3.61.05.39,0,.92-.2,1.11.42l-.17.5Z"/><path class="cls-145" d="M68.56,40.88c1,.18,2,.07,3,.16.12.17.23.34.34.51V42c-.08.32-.19.58-.51.17l-.14-.16c-.39,1.05-1.28.26-1.89.51-.43,0-.45-.41-.64-.65S68.33,41.28,68.56,40.88Z"/><path class="cls-70" d="M57.42,12.35c1.07-.42,2.18-.08,3.27-.19.3,0,.7.15.79-.36l.29.21a1.53,1.53,0,0,0,.5.68c0,.09,0,.19.07.29.06.47-.32.48-.6.5a5.77,5.77,0,0,1-1.66,0,2.21,2.21,0,0,0-1.77.27c-.23,0-.35-.14-.47-.3s-.26-.38-.38-.57S57.25,12.54,57.42,12.35Z"/><path class="cls-7" d="M29.56,34a9.82,9.82,0,0,0-3.24-.23,2.84,2.84,0,0,1-1.5-.14c-.2-.74.49-1.1.72-1.67.17-.21.3-.47.59-.57.57-.16,1.09.16,1.64.2.79.07,1.56,0,2.34,0,.37,0,.77,0,.63.55l-.17.34Z"/><path class="cls-66" d="M32.09,29.9v.16l-.67.85c-1.06.3-2.13-.14-3.2,0-.34,0-.72,0-1.08,0s-.56,0-.59-.39a1.3,1.3,0,0,1,.2-.57c.16-.22.3-.48.59-.56a14,14,0,0,1,2.89,0c.38,0,.78,0,1.16,0S32.1,29.37,32.09,29.9Z"/><path class="cls-23" d="M26.68,30.57c0,.17.08.34.32.26a12.18,12.18,0,0,1,2.77-.15,2.6,2.6,0,0,1,1.65.23,3.67,3.67,0,0,1-.68,1.18c0-.31-.24-.48-.51-.39a12.63,12.63,0,0,1-3,.05,2.73,2.73,0,0,1-1-.36A.57.57,0,0,1,26.68,30.57Z"/><path class="cls-30" d="M18.56,26.35l0,.17a7.38,7.38,0,0,0-1,2,5.4,5.4,0,0,0-.86,1.69,2.71,2.71,0,0,1-.61,1.37.31.31,0,0,1-.21.07c-.17,0-.21-.24-.37-.16-.66.33-.87-.05-1-.6.15-.65.62-1.18.68-1.86a2.13,2.13,0,0,0,.5-1l.5-1,.51-.84c.37-.06.84.12.89-.53,0-.2.36-.23.59-.2s.29.28.26.5A.62.62,0,0,0,18.56,26.35Z"/><path class="cls-47" d="M14.53,30.91c.22.71,1,.39,1.37.68.17.78-.48,1.27-.67,1.92s-.59,1.13-.86,1.71-.61,1.19-.9,1.8c-.17.27-.24.62-.6.72s-.48-.29-.55-.59,0-.33,0-.5A7.61,7.61,0,0,0,13,34.79c.18-.5.35-1,.52-1.52a9.85,9.85,0,0,0,.85-2.19Z"/><path class="cls-189" d="M107.59,14.7c-.12.33-.1.72-.34,1-.92-.1-1.85-.42-2.75.11-.11.07-.27,0-.36-.14a2.2,2.2,0,0,1,.8-1.71c.55.07,1.11-.18,1.65,0C107,14.06,107.67,13.9,107.59,14.7Z"/><path class="cls-190" d="M104.21,15.71a5.84,5.84,0,0,1,2.12-.36,1.28,1.28,0,0,1,.92.36V16l-.33.51a1.07,1.07,0,0,1-.84.28,5,5,0,0,0-1.81-.08c-.25.06-.47-.14-.52-.43S103.79,15.71,104.21,15.71Z"/><path class="cls-191" d="M107.59,14.7c-.55-.81-1.35-.66-2.11-.5-.28.07-.4.14-.43-.19s0-.38.18-.49l.15,0c.07.1.16.19.27.12a2.16,2.16,0,0,1,2.27.07c-.06.34-.12.67-.17,1Z"/><path class="cls-136" d="M105.22,21.11c-.19.12-.16.32-.17.5l-.16,0a26.48,26.48,0,0,0-2.82-.11c-.42,0-.7-.13-.73-.59a1.15,1.15,0,0,1,.43-.86A.47.47,0,0,1,102,20a11.68,11.68,0,0,0,2.71.11c.25,0,.62-.17.67.31Z"/><path class="cls-192" d="M106.23,18.41l-.17.67h-.15a12.09,12.09,0,0,1-3.45,0A1,1,0,0,1,102.9,18c.94,0,1.88-.08,2.82-.05C105.94,18,106.42,17.85,106.23,18.41Z"/><path class="cls-193" d="M102.51,19.08a13.81,13.81,0,0,1,3.4,0,1.84,1.84,0,0,1-.35,1,8,8,0,0,0-2.75-.22c-.24,0-.51.09-.7-.16S102.09,19.12,102.51,19.08Z"/><path class="cls-19" d="M102.17,19.76c1,0,2,0,3-.06.33,0,.36.17.39.4a.4.4,0,0,1-.17.34,12.83,12.83,0,0,0-2.7-.1c-.25,0-.56.12-.68-.25C101.9,19.89,101.91,19.76,102.17,19.76Z"/><path class="cls-16" d="M64.88,17.73l.14.51c-.27.51-.74.36-1.17.38-1,.06-2-.29-3,0a.48.48,0,0,1-.24,0,2.17,2.17,0,0,1-.44-.71,5.58,5.58,0,0,1-.18-.58A.74.74,0,0,1,60,17a.81.81,0,0,1,.77-.41,13.7,13.7,0,0,1,3.56.13l.15,0C64.63,17.06,64.76,17.4,64.88,17.73Z"/><path class="cls-194" d="M63.53,15l.48.71L64,16c0,.46-.27.46-.59.46-1.22,0-2.45,0-3.67,0a.85.85,0,0,1-.46-.45c-.1-.25-.24-.5,0-.75a2.06,2.06,0,0,1,1.14-.19C61.48,15.17,62.5,15,63.53,15Z"/><path class="cls-195" d="M59.78,16.38a20.25,20.25,0,0,1,3.65-.09c.31,0,.47,0,.6-.27a1.15,1.15,0,0,1,.33.68c-.69.28-1.4-.07-2.1,0s-1.5-.22-2.14.34c-.27,0-.34-.17-.42-.35A.36.36,0,0,1,59.78,16.38Z"/><path class="cls-138" d="M66.72,23.14c-1-.19-2,.26-3-.14a1.53,1.53,0,0,0-1.29.14.16.16,0,0,1-.21,0,1.51,1.51,0,0,1-.24-.57.68.68,0,0,1,.06-.37c.36-.41.84-.23,1.27-.23,1,0,2,0,3,0a.36.36,0,0,1,.18.33C66.6,22.57,66.66,22.86,66.72,23.14Z"/><path class="cls-196" d="M18.56,26.35c-.22,0-.46-.08-.4-.4,0-.12.43-.27,0-.35-.21,0-.39,0-.45.24-.17.67-.26.7-1,.34l.18-.67a9.16,9.16,0,0,0,1.17-2l.85-1.34c.12.34,0,.74.25,1.06.11.11.23.37.29.12.18-.64.65-.21.95-.34.12.16,0,.29,0,.44-.35.5-.46,1.16-1,1.58Z"/><path class="cls-89" d="M50,20.61a6.89,6.89,0,0,1-2.52,0l-.53-1.19-.16-.33v-.17a2.13,2.13,0,0,1,1.64.09c.14.08.44-.23.72-.19s.44.42.6.69.13.28.19.42S50.12,20.37,50,20.61Z"/><path class="cls-197" d="M46.1,17.4v-.17a.47.47,0,0,1,.63-.35c.51.13,1,.11,1.55.2a.8.8,0,0,1,.3.19A3.49,3.49,0,0,1,49,18c.06.15.12.3,0,.45a7.23,7.23,0,0,1-2,.07c-.29,0-.4-.26-.55-.46Z"/><path class="cls-56" d="M46.45,18.07c.78.59,1.7.1,2.53.34a.34.34,0,0,1,.26.32.25.25,0,0,1-.09.19,4.5,4.5,0,0,1-2.36,0Z"/><path class="cls-198" d="M106.23,18.41c-.34-.49-.91-.33-1.3-.28a4.55,4.55,0,0,1-1.91-.07,1.53,1.53,0,0,1,.85-1.68c.06.05.13.17.17.16,1-.27,1.92.3,2.87,0v.33a1.71,1.71,0,0,0-.34,1Z"/><path class="cls-199" d="M37,19.42l-.17.51-.16.17a2.71,2.71,0,0,1-2.28,0,.47.47,0,0,1,0-.35c.77-.89,1.51-1.8,2.35-2.63.5-.33.71-1.07,1.46-1.07l-.18.66-.34.85-.33.84C37.22,18.75,37.1,19.09,37,19.42Z"/><path class="cls-66" d="M66.37,22c-1,.48-2.13.08-3.2.18-.34,0-.71-.15-1,.15-.36,0-.35-.29-.46-.5a1,1,0,0,1,0-.49c0-.05.06-.14.09-.13,1,.2,2-.3,3,0A1.21,1.21,0,0,0,66,20.94a.38.38,0,0,1,.17.34C66.27,21.5,66.32,21.73,66.37,22Z"/><path class="cls-200" d="M63.53,15c-.81.52-1.72.28-2.59.36-.55.05-1.11,0-1.67,0-.26.06-.33-.17-.46-.32s-.39-.54-.31-.9a.59.59,0,0,1,.56-.42,21.91,21.91,0,0,1,3.8.08l.26.22.43.83A.32.32,0,0,0,63.53,15Z"/><path class="cls-127" d="M84.29,32.44l.66-.69a2.15,2.15,0,0,1,1.22-.27c2.88,0,5.77,0,8.66,0,.46,0,1-.1,1.27.43-.2.32-.17.76-.5,1a2.22,2.22,0,0,0-1.06,0A2,2,0,0,1,93,32.73a1.61,1.61,0,0,0-1-.12,10.17,10.17,0,0,1-3.77,0c-.35-.1-.6.23-.9.17-1-.2-2.06.23-3-.18A.26.26,0,0,1,84.29,32.44Z"/><path class="cls-138" d="M51.85,25.17c.06.22.12.44.19.66-.78-.4-1.63.12-2.42-.18l-.47-.15L49,25h0A5.3,5.3,0,0,1,51.85,25.17Z"/><path class="cls-76" d="M66,20.94c-.28.26-.27.87-1,.44a2.74,2.74,0,0,0-2.1,0c-.3.12-.72-.08-1.09-.13a.16.16,0,0,1-.22,0,.58.58,0,0,1-.07-.48.42.42,0,0,1,.38-.28,22,22,0,0,1,4,.09l.16,0Z"/><path class="cls-165" d="M38.18,16.06c-.56.28-.85.85-1.34,1.2-2.78.46-5.56.92-8.32,1.48-1.05.22-2.15.3-3.2.5-.79.15-1.57.35-2.38.45-.22,0-.44.1-.63-.1a38.75,38.75,0,0,1,2.36-3.71c.14-.1.33-.3.43-.24.54.38,1,0,1.45-.15,1.3-.31,2.63-.39,3.94-.61.37-.07.8-.25,1.18-.33a17,17,0,0,1,3.4-.58l.08.07a.21.21,0,0,1,0-.15,2.54,2.54,0,0,1,1.58-.33c.54,0,1.08-.14,1.62-.16s.87.12,1,.63-.36.93-.64,1.35l-.33.5Z"/><path class="cls-201" d="M21.6,39.18a.53.53,0,0,0-.32.51.85.85,0,0,1-.16,0,8.65,8.65,0,0,1-2.66.66c-2.05.27-4.07.74-6.12,1-.46.06-.79.59-1.32.34l0-.2,0-.25a1.76,1.76,0,0,0,.33-.87l.14-.18c.13-.15.08-.4.29-.5a21.36,21.36,0,0,1,3.63-.79,6,6,0,0,0,1.76-.38c.1,0,0-.06.07,0,1.54.32,2.94-.45,4.42-.55a.3.3,0,0,1,.32.22Z"/><path class="cls-56" d="M62.86,13.81a16.44,16.44,0,0,1-3.29.08,1.07,1.07,0,0,0-1,.3.17.17,0,0,1-.21,0c-.13-.16-.24-.32-.12-.53A1.65,1.65,0,0,1,60,13.25a6.77,6.77,0,0,0,2,0,.47.47,0,0,0,.37-.29l.34.36Z"/><path class="cls-202" d="M34.42,20.09a16.74,16.74,0,0,0,2.24,0,1.67,1.67,0,0,1-.35,1,4.7,4.7,0,0,1-2.68.06C33.41,20.46,33.85,20.23,34.42,20.09Z"/><path class="cls-203" d="M33.56,21.09l2.75,0v.17c-.06.28-.13.56-.19.84H36A2.52,2.52,0,0,0,34.6,22c-.54,0-1.12.15-1.58-.28a.45.45,0,0,1,.08-.46A.53.53,0,0,1,33.56,21.09Z"/><path class="cls-204" d="M11.83,39.86l-.35.36c0-.23,0-.46,0-.69a2.6,2.6,0,0,0,.34-1.19c.18-.13.16-.32.16-.5l.33-.69c.27.07.3.39.52.51.24.6-.25,1-.45,1.4A6.37,6.37,0,0,1,11.83,39.86Z"/><path class="cls-196" d="M65.88,20.59c-.88.31-1.77,0-2.64.06a4.52,4.52,0,0,0-1.6.14.23.23,0,0,1-.26-.05c-.26-.46-.64-.9-.16-1.44a7.61,7.61,0,0,1,2.23-.12c.64,0,1.28,0,1.91-.1h.15c0,.18,0,.38.18.51,0,.18,0,.38.17.5C65.87,20.26,65.87,20.43,65.88,20.59Z"/><path class="cls-47" d="M65.36,19.08c-.07.47-.44.34-.72.34H61.13a.18.18,0,0,1-.23,0,.61.61,0,0,1-.11-.82,1.72,1.72,0,0,1,1.33-.28,6.91,6.91,0,0,0,2.9-.07l.18.17C65.25,18.63,65.31,18.86,65.36,19.08Z"/><path class="cls-205" d="M44.25,15c-.45.19-.61.79-1.17.84l-.16-.34a4.89,4.89,0,0,0-.36-.63,10,10,0,0,1-.67-1.9,1.06,1.06,0,0,1,1-.95c1,.44,1.36,1.47,1.85,2.35a.49.49,0,0,1,0,.24A.64.64,0,0,1,44.25,15Z"/><path class="cls-70" d="M38.68,15.38l.5-1.36a5,5,0,0,1,.91-1.82c.32-.34.44-1.09,1-.91A1.46,1.46,0,0,1,42,12.75c-.57.84-1.5,1.27-2.15,2a2.54,2.54,0,0,1-.8.45Z"/><path class="cls-206" d="M39,15.2c.12-.29.41-.37.63-.52.82-.55,1.71-.22,2.57-.21.22,0,.38.19.5.39a1.22,1.22,0,0,1,.2.67,1.38,1.38,0,0,0-1.21-.26A7.59,7.59,0,0,1,39,15.2Z"/><path class="cls-13" d="M51.85,25.17A10.62,10.62,0,0,1,49,25l-.17-.51a3.75,3.75,0,0,1,2.7,0C51.61,24.72,51.87,24.87,51.85,25.17Z"/><path class="cls-207" d="M51.51,24.49h-2.7c0-.14,0-.27-.17-.34V24h2.7c.15,0,.2,0,.16.17Z"/><path class="cls-208" d="M104.53,22.8h-.15a13.12,13.12,0,0,0-2.8-.08c-.27,0-.56.12-.79-.12a1,1,0,0,1,0-.78.4.4,0,0,1,.26-.25c.89.3,1.81-.06,2.72.11.32.06.67,0,.91.28Z"/><path class="cls-183" d="M104.73,22a15.09,15.09,0,0,0-2.51-.09c-.37,0-.81.28-1-.24-.17-.37-.11-.62.34-.68,0,.3.12.4.48.37a17.94,17.94,0,0,1,2.2,0c.24,0,.59-.08.7.3Z"/><path class="cls-128" d="M102,28l-.82,1.21c-.43.13-.86.77-1.29-.06-.12-.22-.58-.07-.77,0-.72.39-1.08.05-1.4-.53a5.45,5.45,0,0,1,1.34-2.73,2,2,0,0,0,1.4.21,2.43,2.43,0,0,1,2.06.54Z"/><path class="cls-76" d="M102.52,26.69c-.44.3-.7-.53-1.15-.19-.36-.58-.84-.16-1.19-.07-.52.13-.83.06-1.05-.42a1.87,1.87,0,0,1,.9-1.85c1-.1,2,0,2.93,0,.29,0,.74,0,.57.54l-.34,1a2.1,2.1,0,0,0-.51,1Z"/><path class="cls-209" d="M48.3,17.23A3.8,3.8,0,0,1,46.69,17c-.3-.15-.38.16-.59.19l-.51-.85h0c.66-.44,1.39-.2,2.1-.18l.23.08a1,1,0,0,1,.45.73A.39.39,0,0,1,48.3,17.23Z"/><path class="cls-35" d="M103.53,24.66c0-.43-.38-.33-.65-.34H100c-.2-.25-.1-.48,0-.72a.7.7,0,0,1,.48-.37,18.45,18.45,0,0,1,2.88-.07c.26,0,.63-.16.68.33v.32a1.7,1.7,0,0,0-.35.83Z"/><path class="cls-18" d="M104.05,23.49a7.24,7.24,0,0,0-2.78-.08.78.78,0,0,1-.79-.1.37.37,0,0,1-.09-.33,1.15,1.15,0,0,1,.23-.53.17.17,0,0,1,.21,0c1,0,2,0,2.92,0,.31,0,.52.05.63.35A1.07,1.07,0,0,1,104.05,23.49Z"/><path class="cls-30" d="M97.79,28.71c.55.72,1.23.27,1.83.16.41-.07.62-.2.48.37-.07.29.21.08.28.12.32.16.48-.49.8-.13,0,.11,0,.22,0,.32a2.93,2.93,0,0,0-.5.85,3.41,3.41,0,0,0-.68,1.34l-.5.52a1.13,1.13,0,0,0-1-.38c-.62.05-1.44.28-2-.3-.27-.55.24-.89.35-1.34a5.06,5.06,0,0,1,.36-.74C97.36,29.24,97.42,28.84,97.79,28.71Z"/><path class="cls-107" d="M47.8,16.38H45.63l-.69-1.19c-.16-.14-.34-.27-.35-.51v-.16c.42-.45.75-1,1.46-1.09a.59.59,0,0,1,.3.16c.21.23.36.5.54.74s.37.58.55.87S48.05,15.87,47.8,16.38Z"/><path class="cls-57" d="M44.59,14.68a.57.57,0,0,1,.35.51,1,1,0,0,1-.69-.16Z"/><path class="cls-136" d="M35.5,23.48H31.61l.15-.32a1.41,1.41,0,0,1,.9-1.07,15.66,15.66,0,0,1,2.74,0c.26,0,.61.06.4.5,0,.17,0,.33,0,.5Z"/><path class="cls-138" d="M32.09,29.9c-.09-.34-.4-.29-.62-.28a9.64,9.64,0,0,1-3.3-.14c-.28-.09-.51.43-.81.06a1.18,1.18,0,0,1,.66-1.2h.15c.17.1.13.49.46.35a1.18,1.18,0,0,1,1.19.07c.08,0,.48.07.47-.3,0-.06.08-.12.12-.18.17.75.69.07,1,.24.51.29.74.19.6-.59a2.51,2.51,0,0,0,.76.94v.17Z"/><path class="cls-19" d="M35.8,22.63c0-.14,0-.3-.21-.3l-3,0c0-.39.06-.69.53-.68a6.53,6.53,0,0,0,2.53.13c.38,0,.33.17.35.39S36,22.51,35.8,22.63Z"/><path class="cls-167" d="M10,46.44c-.06-.3.11-.55.16-.83a2.78,2.78,0,0,1,1.71-.6c2-.3,4-.53,5.91-1a1,1,0,0,1,1,.24,1,1,0,0,1-.34.68c-.41-.39-1,0-1.05.15-.45.85-.79.33-1.15-.06-.3.5-1.65,1.14-2.23.83-1.06-.58-1.57.19-2.16.67s-.84,0-1.2-.05S10.35,46.25,10,46.44Z"/><path class="cls-154" d="M18.75,44.25a14.48,14.48,0,0,0-3.47.51l-2.83.4a4.41,4.41,0,0,0-2.07.55s-.15-.06-.22-.1l.33-1.53a1.47,1.47,0,0,1,1.5-.39.61.61,0,0,0,.86-.28c.22-.5.72,0,1-.31s.67-.45,1,0c.07.12.26.07.39,0,1.16-.36,2.43-.23,3.53-.93.41-.27.62.23.64.65v.34a.93.93,0,0,0-.34.67Z"/><path class="cls-210" d="M19.43,42.9l-.35-.45c-.06-.08-.09-.25-.22-.08-.66.81-1.68.55-2.52.8-.26.08-.61.29-.85.19s-.85.61-.89-.29c0-.11-.47,0-.63.17s-.34.67-.69.13c0,0-.2,0-.21,0-.36.82-.91.67-1.59.43a2.11,2.11,0,0,0-1,.28c.11-.51.22-1,.34-1.52A1,1,0,0,1,11.7,42a25.8,25.8,0,0,0,4.53-.75c.82-.25,1.71-.24,2.56-.43a4.22,4.22,0,0,0,1-.28c.28-.15.59-.26.78.14l-.18.67a1.94,1.94,0,0,0-.67,1.19Z"/><path class="cls-211" d="M20.61,40.7c-.13,0-.3-.15-.39-.11-1.3.61-2.74.54-4.08.89a33.55,33.55,0,0,1-4.66.77,2.14,2.14,0,0,0-.65.31,2,2,0,0,1,.19-.84c1.76-.93,3.73-.95,5.63-1.31,1.07-.2,2.15-.38,3.22-.63a7.59,7.59,0,0,1,1.25-.09c-.11.34-.23.67-.35,1Z"/><path class="cls-158" d="M11.83,39.86c.15-.82.85-1.38,1-2.2l.47-.69a2.83,2.83,0,0,1,1.63-.59c2-.27,4-.63,5.93-1.08a10.82,10.82,0,0,1,2-.23c.25,0,.67-.27.8.24-.12.27-.24.55-.35.83a3.86,3.86,0,0,0-.68,1.18.38.38,0,0,0-.17.33l-.15.19-.33.34a9.3,9.3,0,0,0-2.72.47,2.4,2.4,0,0,1-1.58.07c-.39-.15-.61.15-.92.18a9,9,0,0,0-2.65.59.79.79,0,0,1-.49-.07c-.3-.13-.46-.27-.64.23S12.19,39.61,11.83,39.86Z"/><path class="cls-163" d="M94.24,35.64c-1.42.12-2.84,0-4.26.12a1,1,0,0,1-1-.29c.46-.41,1.08-.15,1.55-.16a5.71,5.71,0,0,1,2.5.07C93.43,35.53,94,34.86,94.24,35.64Z"/><path class="cls-107" d="M92.7,34.51a8.34,8.34,0,0,1-3.19-.07A6.05,6.05,0,0,1,92.7,34.51Z"/><path class="cls-107" d="M84.36,34.23h2.36C86.11,34.93,85.3,35,84.36,34.23Z"/><path class="cls-107" d="M87,34.37c.66-.29,1.33.07,1.89-.27a.57.57,0,0,1,.18.24c.07.21-.1.3-.26.35A1.79,1.79,0,0,1,87,34.37Z"/><path class="cls-107" d="M92.69,34.33c.62-.39,1.18.1,1.75.05A1.7,1.7,0,0,1,92.69,34.33Z"/><path class="cls-159" d="M88.84,38.68l-.18-.3a.77.77,0,0,1,.3,0c.2.06.07.2.05.32S88.89,38.79,88.84,38.68Z"/><path class="cls-212" d="M83.43,38a1.67,1.67,0,0,1,.32.08c.1.06.32.09.21.27s-.27.12-.37-.06a2.69,2.69,0,0,1-.16-.29Z"/><path class="cls-156" d="M61.81,46.11a2.49,2.49,0,0,1-.67-.84.56.56,0,0,1,.81-.52,2.52,2.52,0,0,0,1.15.11,34.6,34.6,0,0,1,5.29,0c.79.06,1.59-.35,2.36.07.21.35.63.55.71,1a8.44,8.44,0,0,1-2.92-.1c-.27-.08-.63.11-.93.13a10.27,10.27,0,0,1-3.13-.1,1,1,0,0,0-.65.06,1.23,1.23,0,0,1-1.33,0A.44.44,0,0,0,61.81,46.11Z"/><path class="cls-213" d="M68.92,41.88l.49.68c0,.17.11.34.17.51-.26.24-.58.18-.88.19-3,.08-6,0-8.94,0a4.11,4.11,0,0,1-.82-1.38c-.07-.32.08-.58.38-.46,1,.39,2,0,3,.06a19.71,19.71,0,0,0,2.55,0,15.63,15.63,0,0,1,2.65,0A3,3,0,0,1,68.92,41.88Z"/><path class="cls-158" d="M70.75,44.93a27.43,27.43,0,0,1-2.87.08,2.74,2.74,0,0,0-1.36,0c-.51.22-1-.1-1.57-.06a13.58,13.58,0,0,1-2.7.06c-.45,0-.81-.23-1.11.22a3.67,3.67,0,0,1-.85-1.18c.29-.64.94-.62,1.46-.63,1.83-.05,3.66.14,5.5.08.69,0,1.39.05,2.08,0a.71.71,0,0,1,.61.21Z"/><path class="cls-214" d="M69.94,43.74c-1.27,0-2.54.06-3.82.06-.65,0-1.3-.14-2-.1-1.3.07-2.65-.36-3.88.39l-.16,0c-.12-.26-.24-.53-.37-.79.64-.49,1.39-.23,2.06-.25,2.23-.06,4.45,0,6.68,0a9.74,9.74,0,0,0,1.08,0C69.7,43.29,69.92,43.46,69.94,43.74Z"/><path class="cls-70" d="M55.23,33.78c1.14-.21,2.32,0,3.43-.1,1.55-.14,3.1.26,4.67-.14a15.93,15.93,0,0,1,2.36.07l.51,1.52a1.89,1.89,0,0,1-.91.08c-2.9,0-5.79,0-8.68,0a2.19,2.19,0,0,0-.71.23A5.74,5.74,0,0,1,55.23,33.78Z"/><path class="cls-162" d="M56.57,37l-.48-.72c0-.1,0-.2,0-.31-.17-.62.29-.52.63-.57,1-.14,2.07,0,3.1,0,1.71-.06,3.42,0,5.12,0a2,2,0,0,1,1.45.29c.18.45.36.9.53,1.35h0c-2.46-.24-4.92.15-7.39-.08A28.3,28.3,0,0,0,56.57,37Z"/><path class="cls-127" d="M66.37,35.64c-1.4-.17-2.8,0-4.2-.08a36.26,36.26,0,0,1-4.17,0c-.52-.07-1,.17-1.57,0-.18,0-.35.15-.36.39-.2-.12-.15-.32-.17-.5,0-.43.2-.51.57-.51h8.66a1.8,1.8,0,0,1,1.07.17C66.25,35.3,66.31,35.47,66.37,35.64Z"/><path class="cls-89" d="M103.87,16.38a5.43,5.43,0,0,0-.85,1.68,2.1,2.1,0,0,0-.51,1,1.06,1.06,0,0,0-.34.68l-.16.33h-.16c-.15,0-.35-.07-.41,0-.9.95-2,.26-2.9.29-.19.11-.14.23-.11.33s.22.44,0,.61a.65.65,0,0,1-.79-.06c-.43-.32-.77-.74-1.17-1.09s-.79-.68-1.16,0c-.11.22-.36.35-.52.56A.58.58,0,0,1,94,21c-.34-.13-.15-.42-.17-.65-.67,0-1.3.4-2,.23.18-.34.48-.61.51-1a24.72,24.72,0,0,0,2.19-4.05,12.89,12.89,0,0,0,1-1.86.46.46,0,0,0,.33-.51.35.35,0,0,1,.17-.34L97.34,14c.64.61,1.25.43,1.92.35.38-.05.2-.39.29-.58s0-.62.4-.48a.47.47,0,0,1,.3.68c-.08.16-.3.32,0,.49a.39.39,0,0,0,.58-.16,1.83,1.83,0,0,1,2.37-.81.8.8,0,0,0,.76-.24c.56-.47,1-.35,1.31.28l-.18.49c-.52.45-.52,1.15-.84,1.7A1,1,0,0,0,103.87,16.38Z"/><path class="cls-166" d="M95.93,13.17c0,.15.33.17.18.37s-.33.13-.51.14Z"/><path class="cls-215" d="M97,30.23l-.51,1.35c-.12.11-.23.23-.34.34A1.92,1.92,0,0,0,95,31.75H85a6.35,6.35,0,0,1,1-1.35c.17-.29.44-.29.73-.28,3.21.1,6.42-.06,9.63,0C96.55,30.08,96.77,30,97,30.23Z"/><path class="cls-216" d="M28,28.34l-.66,1.2-.48.54c-1.36.21-2.63.79-4.07.72a5,5,0,0,0-1.68.41,8.05,8.05,0,0,1-2.8.15c-.19,0-.56-.17-.43.32,0,0-.07.13-.09.12-.57-.3-1.26.44-1.77-.22a3.8,3.8,0,0,1,.67-1.35,36.2,36.2,0,0,1,4.13-.78c2.18-.45,4.37-.79,6.56-1.18C27.62,28.23,27.83,28.15,28,28.34Z"/><path class="cls-217" d="M51.51,24.15,51.35,24l-.18-.67h0a18.6,18.6,0,0,1,3.42-.09c2.57-.06,5.15.14,7.72-.08h.15c.07.34.13.68.19,1Z"/><path class="cls-70" d="M62.32,23.14c0,.37-.33.28-.49.28-2,0-3.95,0-5.93,0-1.57,0-3.15,0-4.72-.09l-.35-.68v-.17a.68.68,0,0,1,.62-.18,56.13,56.13,0,0,0,7.45,0,10.1,10.1,0,0,1,3.24.32C62.34,22.75,62.32,23,62.32,23.14Z"/><path class="cls-218" d="M62.15,22.63c-.5.33-1,0-1.51,0-2.45-.07-4.89,0-7.33.12a15.93,15.93,0,0,1-2.47-.26l-.17-.5a1,1,0,0,1,.77-.25c3.35,0,6.71,0,10.06,0a1.91,1.91,0,0,1,.33.06l.32.52Z"/><path class="cls-219" d="M61.48,20.77l.16,0c0,.16,0,.32,0,.48,0,.45-.41.38-.68.38-3.28,0-6.56.07-9.84,0-.31,0-.62,0-.8-.33l-.17-.17v-.17a3.12,3.12,0,0,1,2-.26,5.38,5.38,0,0,0,2,0c1.42-.19,2.83.08,4.24,0A9.25,9.25,0,0,1,61.48,20.77Z"/><path class="cls-162" d="M50.33,21.28a28.2,28.2,0,0,0,4.31.16c2,0,4,0,6.06,0,.32,0,.68.14.95-.16l.16,0c0,.16,0,.32,0,.48-.27.31-.63.18-.95.18H50.67A1,1,0,0,1,50.33,21.28Z"/><path class="cls-220" d="M61.48,20.77a14.91,14.91,0,0,1-3.2.11l-5.54,0c-.86,0-1.72,0-2.58,0L50,20.61l-.17-.68a1.21,1.21,0,0,1,1.4-.28c1,.34,1.88-.15,2.81,0,.08,0,.17-.05.25,0,1.6.21,3.22-.17,4.84.12a4.21,4.21,0,0,0,1.63-.21.63.63,0,0,1,.22-.07h.16C61.25,19.87,61.36,20.32,61.48,20.77Z"/><path class="cls-151" d="M22.31,19.59c1.15-.22,2.29-.48,3.44-.67,1.7-.28,3.45-.36,5.1-.8,1.81-.48,3.67-.56,5.47-1,.21-.05.39-.08.52.13-.8.82-1.47,1.77-2.35,2.52-2.11.58-4.29.76-6.42,1.23-2,.43-4,.67-5.92,1.11a3.34,3.34,0,0,1-1.22,0A12.94,12.94,0,0,1,22.31,19.59Z"/><path class="cls-184" d="M40.2,12.33l-1,1.69a.73.73,0,0,0-1-.38,3.11,3.11,0,0,1-1.27.09,6.48,6.48,0,0,0-1.76.29,11.75,11.75,0,0,1-2.93.55c-.14,0-.3-.07-.39.06-.25.39-.88.13-1.07.61-.65-.43-1.25.2-1.88.06-.14,0-.21-.25-.37,0s-.65.25-1,.21-.57-.35-.57.22c-.55-.15-1,.62-1.5.23s-.5-.06-.75-.07l.82-1.19.7-.84a1.14,1.14,0,0,1,1.17-.16,1.3,1.3,0,0,0,1.6-.32c.2-.25.47-.22.77-.18.6.09,1.28.41,1.72-.36.06-.1.31-.16.38-.06.47.64.86.14,1.25-.07a1.44,1.44,0,0,1,.82-.07,3.57,3.57,0,0,0,2.47-.54c.32-.22.33.13.5.15-.16-.4.16-.4.39-.45s.47.15.73.16c.48,0,1,.12,1.36-.24s.42-.51.76-.29S40.29,12,40.2,12.33Z"/><path class="cls-221" d="M20.93,22.12c1.15-.22,2.3-.51,3.46-.64,1.53-.17,3-.62,4.51-.85,1.74-.25,3.46-.62,5.19-.93a1.19,1.19,0,0,1,.4.08c0,.1-.05.2-.07.31a2.52,2.52,0,0,0-.86,1l-.3.15c-.28.11-.5.45-.86.11-.11-.1-.38,0-.56.1-1.11.36-2.31.3-3.41.72a1.1,1.1,0,0,0-.63.37c-.09.12-.27.22-.36.11-.48-.6-1,0-1.56-.1-.29-.06-.65.4-.93-.13-.08-.17-.08.09-.15.12-.65.29-1.27.75-2,.35-.13-.07-.34-.16-.39-.07-.38.63-1.23,0-1.62.64-.1.15-.37.08-.48-.15.05-.11.09-.23.14-.34Z"/><path class="cls-126" d="M40.2,12.33a3.8,3.8,0,0,1-.06-.58c0-.19-.09-.25-.25-.25a.26.26,0,0,0-.26.12,1.85,1.85,0,0,1-2.1.44c-.09-.06-.15-.15-.28-.11l-.31.08c-.06.38.45.06.42.4a.49.49,0,0,1-.6,0c-.16-.14-.14-.41-.33,0s-.84.11-1.28.31a1.76,1.76,0,0,1-1.46,0c-.39-.18-.56.21-.85.31s-.66.62-.9-.11c-.06-.19-.36-.16-.42,0-.48,1-1.28.44-1.95.37-.19,0-.38,0-.43.09-.24.6-.68.59-1.22.56-.25,0-.44.17-.68-.13s-.7.15-1,0a14.84,14.84,0,0,1,2.19-2.36c.54.33,1.25-.22,1.75.34a1.28,1.28,0,0,0,.36-1c.29.47.6.41,1,.33a4.57,4.57,0,0,1,2.4-.2c.08,0,.19.09.21,0,.34-1,1.22-.12,1.7-.6-.24-.26-.27-.45.31-.43,1.18,0,2.36.33,3.53-.26.39-.2.65.32.86.64s.54.74,1,.3A2.26,2.26,0,0,1,43,11.94a.32.32,0,0,1-.08.21c-.38.2-.81.33-.86.86-.14,0-.22,0-.16-.17a.86.86,0,0,0,0-.17c-.2-.47-.34-1.12-.83-1.23S40.56,12.09,40.2,12.33Z"/><path class="cls-222" d="M67.38,38.34l.49,1.19c-.11.31-.38.31-.63.26a22.35,22.35,0,0,0-3.17,0,37,37,0,0,0-5.26.09,1.22,1.22,0,0,1-1.08-.32,1.11,1.11,0,0,1-.32-.66c.44-1,.89-1.18,1.7-.78a1.2,1.2,0,0,0,1.08.55c.83,0,1.67,0,2.5-.06.33,0,.68-.31,1,.11,0,.08.1-.26.28-.24a1.28,1.28,0,0,0,1.07.12c-.19-.09-.69,0-.54-.45s.53-.2.81-.12a1.91,1.91,0,0,1,1,.66c-.12-.31-.15-.57.2-.69A.68.68,0,0,1,67.38,38.34Z"/><path class="cls-216" d="M68.92,41.88a12.68,12.68,0,0,0-3-.2,12.88,12.88,0,0,1-2.47.06,16.61,16.61,0,0,1-2.44,0,2.77,2.77,0,0,0-1.24.06c-.27.09-.23.13-.36-.16s-.38.06-.48.28a1,1,0,0,1-.35-.65c0-.62.47-.51.82-.57a22.7,22.7,0,0,1,4.12-.09c1.46,0,2.92.05,4.38,0a.68.68,0,0,1,.48.12l.17.18Z"/><path class="cls-171" d="M68.39,40.7a33.52,33.52,0,0,1-4.91.08c-1.4,0-2.8-.08-4.2.08-.3,0-.56.07-.69.38a2.55,2.55,0,0,1-.52-1,.9.9,0,0,1,.76-.25c2.88,0,5.75,0,8.63,0a.82.82,0,0,1,.76.41Z"/><path class="cls-107" d="M56.57,37a5.77,5.77,0,0,1,2.91-.28,53.09,53.09,0,0,0,5.78-.09,3,3,0,0,1,1.6.35l.18.51a.94.94,0,0,1-1.5.06,4.59,4.59,0,0,0-2,0,.41.41,0,0,1-.22,0,.92.92,0,0,0-1,0c-.39.46-.81.58-1.29.11a1.64,1.64,0,0,0-1.91.1.4.4,0,0,1-.21-.09c-.49-.5-1-.35-1.44,0a2.24,2.24,0,0,1-.52.16A1.94,1.94,0,0,1,56.57,37Z"/><path class="cls-22" d="M68.22,40.36a11.57,11.57,0,0,0-3.52-.22c-1.85,0-3.7,0-5.55,0a7.86,7.86,0,0,1-1.08,0,1.23,1.23,0,0,1-.34-.67,4.12,4.12,0,0,0,2.2,0,32.33,32.33,0,0,1,3.41,0c1.3,0,2.6,0,3.9,0,.22,0,.44.07.63-.08A2,2,0,0,1,68.22,40.36Z"/><path class="cls-163" d="M56.91,37.84a.62.62,0,0,1,.34-.35c.56.18,1.15-.12,1.69.17.28.23.46-.06.67-.14a.53.53,0,0,1,.66.18.35.35,0,0,1,0,.45.56.56,0,0,1-.61.15,2.77,2.77,0,0,1-.48-.11l-.12,0c-.39,0-.91-.51-1.07.34,0,.23-.56,0-.63.36A2.26,2.26,0,0,1,56.91,37.84Z"/><path class="cls-223" d="M42.9,12a8,8,0,0,0-1.32-1.35,1,1,0,0,1,0-.17,1,1,0,0,1,.56-.64l.11,0h.33c.47.49,1.16.73,1.52,1.34A1.11,1.11,0,0,1,42.9,12Z"/><path class="cls-224" d="M41.89,9.29l.34.51h0c-.37,0-.61.44-1,.34L39.53,9a2.27,2.27,0,0,0,1.34,0Z"/><path class="cls-225" d="M41.2,10.14c.3-.23.56-.61,1-.34a1.74,1.74,0,0,1-.66.66Z"/><path class="cls-226" d="M55.9,10.64l.51.67c0,.56-.41.53-.75.51-2.06-.11-4.12-.05-6.18,0-.55,0-.57,0-.67-.48a4.47,4.47,0,0,1,2-1.19c1.53,0,3.05,0,4.57.17Z"/><path class="cls-227" d="M46.28,13.68l-.17-.17c-.06,0-.08-.08-.06-.11s0-.06.06-.06a.78.78,0,0,1,.67-.5c.45-.28.92,0,1.37-.05,2.4-.08,4.81-.11,7.21-.06a5.63,5.63,0,0,1,2.24.1l.34.51c-.38.47-.93.26-1.39.34a16,16,0,0,1-4.32,0c-1.18-.11-2.34.16-3.54,0A21.73,21.73,0,0,1,46.28,13.68Z"/><path class="cls-228" d="M48.81,11.32c0,.49.45.28.63.28a61.33,61.33,0,0,1,6.36.05.54.54,0,0,0,.61-.34l.33.19.36.65c-.09.47-.48.42-.8.42-2.58,0-5.17,0-7.75,0-.34,0-.85.06-.75-.58C48.13,11.76,48.36,11.37,48.81,11.32Z"/><path class="cls-229" d="M47.8,12c0,.36.3.34.56.34h8.29a.5.5,0,0,0,.44-.18l.33.19.18.49c-1.15.05-2.3.11-3.45.13s-2.28,0-3.42,0a18,18,0,0,1-3.95-.09C47,12.4,47.45,12.26,47.8,12Z"/><path class="cls-201" d="M46.11,13.34v.17c-.65.12-.88.87-1.52,1a8.6,8.6,0,0,0-1.68-2.36V12l1.18-.84h.17Z"/><path class="cls-230" d="M55.4,10.3a3.69,3.69,0,0,1-1.78.06,9.57,9.57,0,0,0-1.41,0,3,3,0,0,1-1.38-.26,5.75,5.75,0,0,1,2.72-1.19l1.17.69C54.92,9.88,55.27,10,55.4,10.3Z"/><path class="cls-231" d="M43.91,8.78a11.9,11.9,0,0,1,2.2-.67c.1,0,.26,0,.31.05s-.1.24-.17.29A2.54,2.54,0,0,1,43.91,8.78Z"/><path class="cls-232" d="M20.27,23.31c.56.21.69-.15.81-.64.33.24.71.74,1,0,.07-.19.36-.1.46,0,.62.43,1.2.15,1.81,0,.23-.07.44,0,.38-.35s.27-.2.34-.16a2,2,0,0,0,1.73.1c.67-.17.67-.17.75.37.44-.81,1.32-.83,2-.88A3.46,3.46,0,0,0,31,21.38c.49-.29,1.06.11,1.45-.33.19.35.53.1.78.19l-.16.37c-.27.15-.37.43-.53.68l-.81.86a5.77,5.77,0,0,0-2.45.2c-1.46.32-2.93.52-4.39.81-1.67.34-3.39.47-5,.94-.19.06-.32-.06-.47-.11A5.46,5.46,0,0,1,20.27,23.31Z"/><path class="cls-172" d="M91.88,20.61c.6-.34,1.33-.18,1.92-.54.14-.08.3-.17.45,0s0,.25-.07.36-.38.29-.1.47.39,0,.52-.23c.22-.41.76-.56.87-1.09.07-.36.29-.18.5,0A11.17,11.17,0,0,1,97.58,21c.21.21.47.43.73.21s-.09-.36-.19-.53c-.25-.37,0-.63.29-.53.53.19,1.13-.13,1.61.26s.63.15.8-.21c.3-.69.65-.4,1-.09l-.34.85a.94.94,0,0,0-.34.68l-.17.16c-.29.05-.59,0-.82.32s-.42.52-.77.4-.2-.59-.36-1c0,.7-.33,1-1,1.14.89.29,2-.24,2.14,1l-.18.68A5.35,5.35,0,0,0,99.13,26a14.15,14.15,0,0,0-1.34,2.7l-.51.85a4.91,4.91,0,0,0-2.65-.25c-.72,0-1.44-.06-2.16,0-.56,0-1.14.18-1.65.15-1.16-.05-2.32-.07-3.48,0-.2,0-.4-.18-.53-.38L90.7,22.8a7.38,7.38,0,0,1,3.26.09c-.49-.54-1.08-.9-.94-1.64-.18.07-.18.23-.2.34-.13.57-.46.85-1,.67s-.07-.6-.09-.9c0-.08,0-.17,0-.25Z"/><path class="cls-217" d="M86.81,29.05a4.17,4.17,0,0,0,2.19,0,.36.36,0,0,1,.25,0c1.2.47,2.4-.08,3.6,0,1.37.07,2.75,0,4.12,0,.35,0,.29.26.31.48l-.33.67c-1.78.05-3.55.05-5.32.09s-3.78-.05-5.67.08A4.06,4.06,0,0,1,86.81,29.05Z"/><path class="cls-89" d="M91.7,21.11c.42.32,0,.64,0,.95.82.31.88-.3,1-.8.07-.26.1-.54.45-.46s.11.35.07.53c-.16.68.43.89.78,1.25.13.13.43.17.32.41s-.38.13-.59.06a3.18,3.18,0,0,0-2.37,0c-.32.13-.43-.19-.65-.25A8,8,0,0,1,91.7,21.11Z"/><path class="cls-163" d="M61.14,37.49c.45.65.73.23,1-.16a2.39,2.39,0,0,0,1.18.16h0a4.16,4.16,0,0,0,2.37-.16c.36.74.89.13,1.34.16l.34.85c-.33-.24-.67-.41-1-.11,0,.29.37.34.32.64-.82.17-1.15-1.17-2.12-.66.29.36.79.06,1.22.62-.7-.29-1.26.49-1.74-.32a3.1,3.1,0,0,0-1.13.07c-.73.23-1.45-.13-2.19-.14a.62.62,0,0,1-.3-.37c-.08-.2.52-.35,0-.55C60.63,37.05,60.9,37.49,61.14,37.49Z"/><path class="cls-161" d="M23.65,35.31a15.88,15.88,0,0,0-4,.5c-1.77.33-3.55.71-5.35.89-.33,0-.56.4-.94.27.3-.61.6-1.22.89-1.83,1.59-.56,3.28-.6,4.9-1s3.24-.53,4.84-.88c.21,0,.76-.37.72.33l-.36.86a1.85,1.85,0,0,0-.5.84Z"/><path class="cls-233" d="M24.66,33.59c0-.11-.06-.24-.2-.21-1.66.39-3.37.48-5,1a24.89,24.89,0,0,1-3.15.46,7,7,0,0,0-1.7.45c-.27.12-.26-.11-.39-.12l.85-1.7a1.11,1.11,0,0,1,1.1-.29,1.68,1.68,0,0,0,1.72-.32c.35-.34.95-.19,1.44-.23,1.16-.1,2.4.06,3.41-.75a.64.64,0,0,1,.56-.14,3.86,3.86,0,0,0,1.82,0,.54.54,0,0,1,.59.24c-.17.61-.74,1-.87,1.65h-.16Z"/><path class="cls-234" d="M46.28,13.68c.29-.23.61,0,.87,0a10,10,0,0,1,2.94-.11,4.28,4.28,0,0,1,1.75,0,4.24,4.24,0,0,0,2.14.05c.48-.12.89.31,1.34.1.84-.4,1.75-.15,2.62-.33l.33.34.17.49c.15.3,0,.44-.27.39a57.16,57.16,0,0,0-6.8-.12c-1.53,0-3.06,0-4.59-.08C46.49,14.22,46.41,13.93,46.28,13.68Z"/><path class="cls-235" d="M25.69,31.93c-.55-.23-1.08.18-1.64.06-.21,0-.45.23-.68-.09,0,0-.53-.15-.65.24s-.38.33-.67.37a24.17,24.17,0,0,1-3.7.38c-.11,0-.3,0-.31,0-.31,1.08-1.29.29-1.89.62-.13.08-.71-.2-1.1,0,.28-.61.56-1.23.85-1.85H16c.34.07.65.28,1-.08s.37.49.73.17c-.23-.28-.19-.59.23-.52s1-.28,1.5.15a.3.3,0,0,0,.23,0,15.35,15.35,0,0,1,2.6-.52,16.49,16.49,0,0,0,1.85-.27c.5-.2,1.11.06,1.54-.53.19-.28.76,0,1.17.07-.07.16-.13.32-.2.49a1.73,1.73,0,0,0-.51.82Z"/><path class="cls-236" d="M61,19.42v.17c-.95.05-1.92.39-2.83-.15-.73.52-1.54.17-2.3.2-1.19,0-2.39.05-3.58.1a12,12,0,0,1-2.61-.14l-.5-.68v-.17a3,3,0,0,1,1.56-.2c3.31,0,6.61,0,9.92,0h.16Z"/><path class="cls-237" d="M60.63,18.58c-.28.44-.73.2-1.08.2-2.88,0-5.77,0-8.65,0-.58,0-1.17,0-1.75,0L49,18.41l-.16-.34a1.45,1.45,0,0,1,1.1-.3c3.07.1,6.15.05,9.22,0a5.13,5.13,0,0,1,1.17.09A1,1,0,0,1,60.63,18.58Z"/><path class="cls-238" d="M60.31,17.89c-.5.39-1.09.16-1.6.15-2.94,0-5.88.12-8.82-.07a6.36,6.36,0,0,0-1.07.1c-.12-.22-.23-.45-.34-.67,1.2,0,2.41,0,3.6,0s2.32,0,3.48-.1,2.51.14,3.76-.07a1.3,1.3,0,0,1,.81.19C60.31,17.51,60.29,17.71,60.31,17.89Z"/><path class="cls-239" d="M60.13,17.39c-2,.3-4-.1-6,.17-.31,0-1-.17-1.26-.1-.87.32-1.72-.19-2.58.15a2.72,2.72,0,0,1-1.79-.21l-.18-.17v-.17c.11-.26.34-.26.57-.26,2.43,0,4.87-.07,7.31,0,1.2,0,2.4,0,3.61-.06l.32.36Z"/><path class="cls-240" d="M47.8,16.38c0-.47-.47-.73-.51-1.18a1.4,1.4,0,0,1,1.17,0,6.36,6.36,0,0,0,2.41-.13,1.72,1.72,0,0,1,.9.06,1.45,1.45,0,0,0,.82.12c1.86-.36,3.71,0,5.57,0A2.86,2.86,0,0,0,59,15l.32.35c.07.22.13.44.19.67-.1.57-.6.43-.92.42-2.07,0-4.15.06-6.22,0-1.45-.05-2.91.11-4.36-.08Z"/><path class="cls-241" d="M48,16.38a3.47,3.47,0,0,1,1.72-.15c3,0,6,0,8.93,0a1,1,0,0,0,.85-.23l.32.34c0,.11,0,.22,0,.33-.44.35-.93.19-1.42.2-2.57.06-5.13,0-7.69,0a13.57,13.57,0,0,0-2.38.13Z"/><path class="cls-242" d="M49.65,19.6a4.64,4.64,0,0,1,1.78,0c1.35.06,2.69-.18,4-.08a8.9,8.9,0,0,0,2.06.07c1.16-.19,2.29.16,3.44,0-1,.48-2,.15-3,.23a40.23,40.23,0,0,0-4.1.1,13.31,13.31,0,0,1-3.27-.08c-.27,0-.49.1-.73.09A.35.35,0,0,1,49.65,19.6Z"/><path class="cls-243" d="M59,15c-.22.91-.94.33-1.4.43-1,.19-2-.49-2.94,0-.64-.6-1.3.12-2-.06a15.83,15.83,0,0,0-4,0,11.61,11.61,0,0,1-1.33-.23,1.67,1.67,0,0,1-.51-.84,11.82,11.82,0,0,1,3.2-.14c1.67,0,3.35-.07,5,0a9.06,9.06,0,0,1,3.32.23,1.71,1.71,0,0,0,.13-.27l.16,0Z"/><path class="cls-184" d="M35.6,14.12c-.14.1-.2.17-.27.18s-.17-.1-.19-.2.11-.07.15-.07A1.09,1.09,0,0,1,35.6,14.12Z"/><path class="cls-244" d="M41.89,12.84l.16.17c.22.61.44,1.23.67,1.85a6.27,6.27,0,0,0-3.07-.18A9.91,9.91,0,0,1,41.89,12.84Z"/><path class="cls-89" d="M100.15,23.64A1.23,1.23,0,0,0,98.62,23c-.36.1-.72.1-.78-.34s.36-.31.6-.34c.42-.05.35-.36.36-.63s.22-.51.48-.46.1.34.07.54-.14.5.08.61.41-.2.59-.35.5-.87,1-.21a1.29,1.29,0,0,1-.17.67h-.15c-.17.12-.34.25-.19.5,0,.11,0,.22,0,.34Z"/><path class="cls-172" d="M100.49,23c-.19,0-.45,0-.38-.3s.35-.2.57-.2C100.65,22.65,100.68,22.85,100.49,23Z"/><path class="cls-166" d="M103,14.15c0,.15-.08.28-.22.27a.46.46,0,0,1-.33-.2c-.07-.13,0-.26.18-.3S102.91,14,103,14.15Z"/><path class="cls-245" d="M60.8,38.34c1.07.16,2.15-.07,3.21.17-.15.23-.28.26-.61.13,0,0-.12-.06-.15,0-.83.54-1.76.11-2.63.25-.56.09-1.28.17-1.51-.67h0A4.82,4.82,0,0,0,60.8,38.34Z"/><path class="cls-246" d="M60.8,38.34a1.32,1.32,0,0,1-1.69-.17c.21-.29.44-.07.67,0a.61.61,0,0,0,.4-.06c.1,0,.06-.2,0-.28s-.16-.24-.4-.13-.55.33-.82,0a1.64,1.64,0,0,1,2.2-.17c-.2.07-.4-.13-.6,0C61.05,37.65,60.16,38.24,60.8,38.34Z"/><path class="cls-220" d="M65.7,37.33c0,.51-.51.38-.7.38-.55,0-1.19.39-1.67-.22C64.09,36.94,64.91,37.4,65.7,37.33Z"/><path class="cls-220" d="M58.94,37.66a2.22,2.22,0,0,1-1.69-.17,1.52,1.52,0,0,1,1.44-.26C59,37.3,58.92,37.49,58.94,37.66Z"/><path class="cls-220" d="M63.33,37.49a.71.71,0,0,1-1.18-.16C62.58,37.13,63,37,63.33,37.49Z"/><path class="cls-89" d="M95.1,20.75c.45-.17.56-.85,1.19-.44.44.28.63.43.2.84-.15.14-.25.29-.09.51s.55.56.27.65c-.45.16-.64.9-1.35.57.12-.14.21-.24.29-.35s.55-.22.44-.53-.35.06-.52,0-.36-.37-.18-.51C95.85,21.11,95.59,20.94,95.1,20.75Z"/></g><g id="R8NXSx.tif"><path class="cls-247" d="M115.84,106.69a20.23,20.23,0,0,1-6-3.33s-1.15.57-1.69.76c-6.63,2.39-13.73.13-16.83-5.34-3.55-6.28-2.22-15,2.94-19.32,7.38-6.19,19.45-2.28,21.65,7.09,1.14,4.82.77,9.53-2.41,13.61-.13.17-1,1.23-1,1.23s4.44,3.22,5.54,3A25.88,25.88,0,0,1,115.84,106.69ZM106.38,101a11.58,11.58,0,0,0-3.2-1.09l.94-2.6c1.67-.11,5.13,2.25,5.13,2.25a15.58,15.58,0,0,0,1.67-2.1c1.87-3.16,1.83-6.63,1.21-10a9.12,9.12,0,0,0-9.22-7.63c-4.62,0-8.09,2.91-9.17,7.66a14.75,14.75,0,0,0,.12,7.23C95.37,100.35,100.28,102.89,106.38,101Z"/><path class="cls-248" d="M44.2,76.58c5.8,0,9.64,2.26,10.75,6.24.13.49.48,2,.48,2s-.41.1-1,.17-2.82.42-2.82.42a5.25,5.25,0,0,0-.31-1.31c-1.73-4.14-7.49-5.6-11.2-3a3.47,3.47,0,0,0-1.7,3.19A3,3,0,0,0,40.7,87c3.2,1,6.47,1.66,9.64,2.69C54.69,91.11,56.53,94,56,98.05a7.4,7.4,0,0,1-5.18,6.07,15.87,15.87,0,0,1-12.14-.4,8.26,8.26,0,0,1-4.72-5.63c-.16-.53-.48-2.19-.48-2.19s.45-.12,1-.24,2.7-.42,2.7-.42a14.73,14.73,0,0,1,.45,1.68c1.1,5.21,9.82,5.83,13.11,3.36a3.64,3.64,0,0,0-.47-6.42C48,92.62,45.38,92.46,43,91.7a38,38,0,0,1-4.11-1.36c-2.69-1.21-4.28-3.24-4.18-6.35a6.8,6.8,0,0,1,4.41-6.27A15,15,0,0,1,44.2,76.58Z"/></g><rect class="cls-249" x="0.63" y="58.37" width="119.37" height="1.27"/><polygon class="cls-248" points="30.53 104.73 30.53 76.84 25.4 76.84 17.21 100.11 9.24 76.84 3.48 76.84 3.48 104.73 7.23 104.73 7.21 83.13 15.27 104.73 18.96 104.73 26.52 83.12 26.69 104.73 30.53 104.73"/><polygon class="cls-248" points="86.44 104.73 86.44 76.84 81.31 76.84 73.12 100.11 65.15 76.84 59.39 76.84 59.39 104.73 63.14 104.73 63.12 83.13 71.18 104.73 74.87 104.73 82.43 83.12 82.6 104.73 86.44 104.73"/><rect class="cls-250" width="120" height="120"/></g></g></svg>